%TF.GenerationSoftware,KiCad,Pcbnew,8.0.3*%
%TF.CreationDate,2024-07-01T08:25:33+09:00*%
%TF.ProjectId,Unit-HDPL-1414,556e6974-2d48-4445-904c-2d313431342e,rev?*%
%TF.SameCoordinates,Original*%
%TF.FileFunction,Legend,Bot*%
%TF.FilePolarity,Positive*%
%FSLAX46Y46*%
G04 Gerber Fmt 4.6, Leading zero omitted, Abs format (unit mm)*
G04 Created by KiCad (PCBNEW 8.0.3) date 2024-07-01 08:25:33*
%MOMM*%
%LPD*%
G01*
G04 APERTURE LIST*
G04 Aperture macros list*
%AMRoundRect*
0 Rectangle with rounded corners*
0 $1 Rounding radius*
0 $2 $3 $4 $5 $6 $7 $8 $9 X,Y pos of 4 corners*
0 Add a 4 corners polygon primitive as box body*
4,1,4,$2,$3,$4,$5,$6,$7,$8,$9,$2,$3,0*
0 Add four circle primitives for the rounded corners*
1,1,$1+$1,$2,$3*
1,1,$1+$1,$4,$5*
1,1,$1+$1,$6,$7*
1,1,$1+$1,$8,$9*
0 Add four rect primitives between the rounded corners*
20,1,$1+$1,$2,$3,$4,$5,0*
20,1,$1+$1,$4,$5,$6,$7,0*
20,1,$1+$1,$6,$7,$8,$9,0*
20,1,$1+$1,$8,$9,$2,$3,0*%
G04 Aperture macros list end*
%ADD10C,0.150000*%
%ADD11RoundRect,0.500000X-0.008000X0.750000X-0.008000X-0.750000X0.008000X-0.750000X0.008000X0.750000X0*%
%ADD12RoundRect,0.500000X0.008000X-0.750000X0.008000X0.750000X-0.008000X0.750000X-0.008000X-0.750000X0*%
%ADD13C,5.500000*%
%ADD14C,1.524000*%
G04 APERTURE END LIST*
D10*
X87674220Y-93865819D02*
X87674220Y-94675342D01*
X87674220Y-94675342D02*
X87626601Y-94770580D01*
X87626601Y-94770580D02*
X87578982Y-94818200D01*
X87578982Y-94818200D02*
X87483744Y-94865819D01*
X87483744Y-94865819D02*
X87293268Y-94865819D01*
X87293268Y-94865819D02*
X87198030Y-94818200D01*
X87198030Y-94818200D02*
X87150411Y-94770580D01*
X87150411Y-94770580D02*
X87102792Y-94675342D01*
X87102792Y-94675342D02*
X87102792Y-93865819D01*
X86626601Y-94199152D02*
X86626601Y-94865819D01*
X86626601Y-94294390D02*
X86578982Y-94246771D01*
X86578982Y-94246771D02*
X86483744Y-94199152D01*
X86483744Y-94199152D02*
X86340887Y-94199152D01*
X86340887Y-94199152D02*
X86245649Y-94246771D01*
X86245649Y-94246771D02*
X86198030Y-94342009D01*
X86198030Y-94342009D02*
X86198030Y-94865819D01*
X85721839Y-94865819D02*
X85721839Y-94199152D01*
X85721839Y-93865819D02*
X85769458Y-93913438D01*
X85769458Y-93913438D02*
X85721839Y-93961057D01*
X85721839Y-93961057D02*
X85674220Y-93913438D01*
X85674220Y-93913438D02*
X85721839Y-93865819D01*
X85721839Y-93865819D02*
X85721839Y-93961057D01*
X85388506Y-94199152D02*
X85007554Y-94199152D01*
X85245649Y-93865819D02*
X85245649Y-94722961D01*
X85245649Y-94722961D02*
X85198030Y-94818200D01*
X85198030Y-94818200D02*
X85102792Y-94865819D01*
X85102792Y-94865819D02*
X85007554Y-94865819D01*
X83912315Y-94865819D02*
X83912315Y-93865819D01*
X83912315Y-94342009D02*
X83340887Y-94342009D01*
X83340887Y-94865819D02*
X83340887Y-93865819D01*
X82864696Y-94865819D02*
X82864696Y-93865819D01*
X82864696Y-93865819D02*
X82483744Y-93865819D01*
X82483744Y-93865819D02*
X82388506Y-93913438D01*
X82388506Y-93913438D02*
X82340887Y-93961057D01*
X82340887Y-93961057D02*
X82293268Y-94056295D01*
X82293268Y-94056295D02*
X82293268Y-94199152D01*
X82293268Y-94199152D02*
X82340887Y-94294390D01*
X82340887Y-94294390D02*
X82388506Y-94342009D01*
X82388506Y-94342009D02*
X82483744Y-94389628D01*
X82483744Y-94389628D02*
X82864696Y-94389628D01*
X81864696Y-94865819D02*
X81864696Y-93865819D01*
X81864696Y-93865819D02*
X81626601Y-93865819D01*
X81626601Y-93865819D02*
X81483744Y-93913438D01*
X81483744Y-93913438D02*
X81388506Y-94008676D01*
X81388506Y-94008676D02*
X81340887Y-94103914D01*
X81340887Y-94103914D02*
X81293268Y-94294390D01*
X81293268Y-94294390D02*
X81293268Y-94437247D01*
X81293268Y-94437247D02*
X81340887Y-94627723D01*
X81340887Y-94627723D02*
X81388506Y-94722961D01*
X81388506Y-94722961D02*
X81483744Y-94818200D01*
X81483744Y-94818200D02*
X81626601Y-94865819D01*
X81626601Y-94865819D02*
X81864696Y-94865819D01*
X80388506Y-94865819D02*
X80864696Y-94865819D01*
X80864696Y-94865819D02*
X80864696Y-93865819D01*
X79531363Y-94865819D02*
X80102791Y-94865819D01*
X79817077Y-94865819D02*
X79817077Y-93865819D01*
X79817077Y-93865819D02*
X79912315Y-94008676D01*
X79912315Y-94008676D02*
X80007553Y-94103914D01*
X80007553Y-94103914D02*
X80102791Y-94151533D01*
X78674220Y-94199152D02*
X78674220Y-94865819D01*
X78912315Y-93818200D02*
X79150410Y-94532485D01*
X79150410Y-94532485D02*
X78531363Y-94532485D01*
X77626601Y-94865819D02*
X78198029Y-94865819D01*
X77912315Y-94865819D02*
X77912315Y-93865819D01*
X77912315Y-93865819D02*
X78007553Y-94008676D01*
X78007553Y-94008676D02*
X78102791Y-94103914D01*
X78102791Y-94103914D02*
X78198029Y-94151533D01*
X76769458Y-94199152D02*
X76769458Y-94865819D01*
X77007553Y-93818200D02*
X77245648Y-94532485D01*
X77245648Y-94532485D02*
X76626601Y-94532485D01*
X75626600Y-93865819D02*
X75293267Y-94865819D01*
X75293267Y-94865819D02*
X74959934Y-93865819D01*
X74245648Y-94818200D02*
X74340886Y-94865819D01*
X74340886Y-94865819D02*
X74531362Y-94865819D01*
X74531362Y-94865819D02*
X74626600Y-94818200D01*
X74626600Y-94818200D02*
X74674219Y-94722961D01*
X74674219Y-94722961D02*
X74674219Y-94342009D01*
X74674219Y-94342009D02*
X74626600Y-94246771D01*
X74626600Y-94246771D02*
X74531362Y-94199152D01*
X74531362Y-94199152D02*
X74340886Y-94199152D01*
X74340886Y-94199152D02*
X74245648Y-94246771D01*
X74245648Y-94246771D02*
X74198029Y-94342009D01*
X74198029Y-94342009D02*
X74198029Y-94437247D01*
X74198029Y-94437247D02*
X74674219Y-94532485D01*
X73769457Y-94865819D02*
X73769457Y-94199152D01*
X73769457Y-94389628D02*
X73721838Y-94294390D01*
X73721838Y-94294390D02*
X73674219Y-94246771D01*
X73674219Y-94246771D02*
X73578981Y-94199152D01*
X73578981Y-94199152D02*
X73483743Y-94199152D01*
X73150409Y-94770580D02*
X73102790Y-94818200D01*
X73102790Y-94818200D02*
X73150409Y-94865819D01*
X73150409Y-94865819D02*
X73198028Y-94818200D01*
X73198028Y-94818200D02*
X73150409Y-94770580D01*
X73150409Y-94770580D02*
X73150409Y-94865819D01*
X72483743Y-93865819D02*
X72388505Y-93865819D01*
X72388505Y-93865819D02*
X72293267Y-93913438D01*
X72293267Y-93913438D02*
X72245648Y-93961057D01*
X72245648Y-93961057D02*
X72198029Y-94056295D01*
X72198029Y-94056295D02*
X72150410Y-94246771D01*
X72150410Y-94246771D02*
X72150410Y-94484866D01*
X72150410Y-94484866D02*
X72198029Y-94675342D01*
X72198029Y-94675342D02*
X72245648Y-94770580D01*
X72245648Y-94770580D02*
X72293267Y-94818200D01*
X72293267Y-94818200D02*
X72388505Y-94865819D01*
X72388505Y-94865819D02*
X72483743Y-94865819D01*
X72483743Y-94865819D02*
X72578981Y-94818200D01*
X72578981Y-94818200D02*
X72626600Y-94770580D01*
X72626600Y-94770580D02*
X72674219Y-94675342D01*
X72674219Y-94675342D02*
X72721838Y-94484866D01*
X72721838Y-94484866D02*
X72721838Y-94246771D01*
X72721838Y-94246771D02*
X72674219Y-94056295D01*
X72674219Y-94056295D02*
X72626600Y-93961057D01*
X72626600Y-93961057D02*
X72578981Y-93913438D01*
X72578981Y-93913438D02*
X72483743Y-93865819D01*
X71721838Y-94770580D02*
X71674219Y-94818200D01*
X71674219Y-94818200D02*
X71721838Y-94865819D01*
X71721838Y-94865819D02*
X71769457Y-94818200D01*
X71769457Y-94818200D02*
X71721838Y-94770580D01*
X71721838Y-94770580D02*
X71721838Y-94865819D01*
X70721839Y-94865819D02*
X71293267Y-94865819D01*
X71007553Y-94865819D02*
X71007553Y-93865819D01*
X71007553Y-93865819D02*
X71102791Y-94008676D01*
X71102791Y-94008676D02*
X71198029Y-94103914D01*
X71198029Y-94103914D02*
X71293267Y-94151533D01*
%LPC*%
D11*
%TO.C,U1*%
X91440000Y-80580000D03*
X90170000Y-80580000D03*
X88900000Y-80580000D03*
X87630000Y-80580000D03*
X86360000Y-80580000D03*
X85090000Y-80580000D03*
X83820000Y-80580000D03*
X82550000Y-80580000D03*
X81280000Y-80580000D03*
X80010000Y-80580000D03*
X78740000Y-80580000D03*
X77470000Y-80580000D03*
X76200000Y-80580000D03*
X74930000Y-80580000D03*
X73660000Y-80580000D03*
X72390000Y-80580000D03*
X71120000Y-80580000D03*
D12*
X71120000Y-97220000D03*
X72390000Y-97220000D03*
X73660000Y-97220000D03*
X74930000Y-97220000D03*
X76200000Y-97220000D03*
X77470000Y-97220000D03*
X78740000Y-97220000D03*
X80010000Y-97220000D03*
X81280000Y-97220000D03*
X82550000Y-97220000D03*
X83820000Y-97220000D03*
%TD*%
D13*
%TO.C,H1*%
X135636000Y-88900000D03*
%TD*%
D14*
%TO.C,J1*%
X140208000Y-91852000D03*
X140208000Y-89852000D03*
X140208000Y-87852000D03*
X140208000Y-85852000D03*
%TD*%
%TO.C,U2*%
X96520000Y-96520000D03*
X99060000Y-96520000D03*
X101600000Y-96520000D03*
X104140000Y-96520000D03*
X106680000Y-96520000D03*
X109220000Y-96520000D03*
X109220000Y-81280000D03*
X106680000Y-81280000D03*
X104140000Y-81280000D03*
X101600000Y-81280000D03*
X99060000Y-81280000D03*
X96520000Y-81280000D03*
%TD*%
%TO.C,U3*%
X114300000Y-96520000D03*
X116840000Y-96520000D03*
X119380000Y-96520000D03*
X121920000Y-96520000D03*
X124460000Y-96520000D03*
X127000000Y-96520000D03*
X127000000Y-81280000D03*
X124460000Y-81280000D03*
X121920000Y-81280000D03*
X119380000Y-81280000D03*
X116840000Y-81280000D03*
X114300000Y-81280000D03*
%TD*%
%LPD*%
M02*
