%TF.GenerationSoftware,KiCad,Pcbnew,8.0.3*%
%TF.CreationDate,2024-06-28T13:44:15+09:00*%
%TF.ProjectId,Unit-HDPL-1414,556e6974-2d48-4445-904c-2d313431342e,rev?*%
%TF.SameCoordinates,Original*%
%TF.FileFunction,Copper,L1,Top*%
%TF.FilePolarity,Positive*%
%FSLAX46Y46*%
G04 Gerber Fmt 4.6, Leading zero omitted, Abs format (unit mm)*
G04 Created by KiCad (PCBNEW 8.0.3) date 2024-06-28 13:44:15*
%MOMM*%
%LPD*%
G01*
G04 APERTURE LIST*
G04 Aperture macros list*
%AMRoundRect*
0 Rectangle with rounded corners*
0 $1 Rounding radius*
0 $2 $3 $4 $5 $6 $7 $8 $9 X,Y pos of 4 corners*
0 Add a 4 corners polygon primitive as box body*
4,1,4,$2,$3,$4,$5,$6,$7,$8,$9,$2,$3,0*
0 Add four circle primitives for the rounded corners*
1,1,$1+$1,$2,$3*
1,1,$1+$1,$4,$5*
1,1,$1+$1,$6,$7*
1,1,$1+$1,$8,$9*
0 Add four rect primitives between the rounded corners*
20,1,$1+$1,$2,$3,$4,$5,0*
20,1,$1+$1,$4,$5,$6,$7,0*
20,1,$1+$1,$6,$7,$8,$9,0*
20,1,$1+$1,$8,$9,$2,$3,0*%
G04 Aperture macros list end*
%TA.AperFunction,ComponentPad*%
%ADD10RoundRect,0.500000X-0.008000X0.750000X-0.008000X-0.750000X0.008000X-0.750000X0.008000X0.750000X0*%
%TD*%
%TA.AperFunction,ComponentPad*%
%ADD11RoundRect,0.500000X0.008000X-0.750000X0.008000X0.750000X-0.008000X0.750000X-0.008000X-0.750000X0*%
%TD*%
%TA.AperFunction,ComponentPad*%
%ADD12C,1.524000*%
%TD*%
%TA.AperFunction,ViaPad*%
%ADD13C,0.800000*%
%TD*%
%TA.AperFunction,Conductor*%
%ADD14C,0.500000*%
%TD*%
%TA.AperFunction,Conductor*%
%ADD15C,0.550000*%
%TD*%
%TA.AperFunction,Conductor*%
%ADD16C,0.250000*%
%TD*%
G04 APERTURE END LIST*
D10*
%TO.P,U1,1,G1*%
%TO.N,Net-(U1-G1)*%
X91440000Y-80580000D03*
%TO.P,U1,2,G2*%
%TO.N,unconnected-(U1-G2-Pad2)*%
X90170000Y-80580000D03*
%TO.P,U1,3,G3*%
%TO.N,Net-(U1-G3)*%
X88900000Y-80580000D03*
%TO.P,U1,4,G4*%
%TO.N,unconnected-(U1-G4-Pad4)*%
X87630000Y-80580000D03*
%TO.P,U1,5,G5*%
%TO.N,Net-(U1-G5)*%
X86360000Y-80580000D03*
%TO.P,U1,6,G6*%
%TO.N,unconnected-(U1-G6-Pad6)*%
X85090000Y-80580000D03*
%TO.P,U1,7,G7*%
%TO.N,Net-(U1-G7)*%
X83820000Y-80580000D03*
%TO.P,U1,8,G8*%
%TO.N,unconnected-(U1-G8-Pad8)*%
X82550000Y-80580000D03*
%TO.P,U1,9,G9*%
%TO.N,Net-(U1-G9)*%
X81280000Y-80580000D03*
%TO.P,U1,10,G10*%
%TO.N,unconnected-(U1-G10-Pad10)*%
X80010000Y-80580000D03*
%TO.P,U1,11,GND*%
%TO.N,unconnected-(U1-GND-Pad11)*%
X78740000Y-80580000D03*
%TO.P,U1,12,G11*%
%TO.N,unconnected-(U1-G11-Pad12)*%
X77470000Y-80580000D03*
%TO.P,U1,13,5V*%
%TO.N,+5V*%
X76200000Y-80580000D03*
%TO.P,U1,14,G12*%
%TO.N,unconnected-(U1-G12-Pad14)*%
X74930000Y-80580000D03*
%TO.P,U1,15,G13/SDA*%
%TO.N,Net-(J1-Pin_3)*%
X73660000Y-80580000D03*
%TO.P,U1,16,G14*%
%TO.N,unconnected-(U1-G14-Pad16)*%
X72390000Y-80580000D03*
%TO.P,U1,17,G15/SCL*%
%TO.N,Net-(J1-Pin_4)*%
X71120000Y-80580000D03*
D11*
%TO.P,U1,18,GND*%
%TO.N,GND*%
X71120000Y-97220000D03*
%TO.P,U1,19,G39*%
%TO.N,unconnected-(U1-G39-Pad19)*%
X72390000Y-97220000D03*
%TO.P,U1,20,G0*%
%TO.N,unconnected-(U1-G0-Pad20)*%
X73660000Y-97220000D03*
%TO.P,U1,21,G40*%
%TO.N,Net-(U1-G40)*%
X74930000Y-97220000D03*
%TO.P,U1,22,EN*%
%TO.N,unconnected-(U1-EN-Pad22)*%
X76200000Y-97220000D03*
%TO.P,U1,23,G41*%
%TO.N,Net-(U1-G41)*%
X77470000Y-97220000D03*
%TO.P,U1,24,G44*%
%TO.N,Net-(U1-G44)*%
X78740000Y-97220000D03*
%TO.P,U1,25,G42*%
%TO.N,Net-(U1-G42)*%
X80010000Y-97220000D03*
%TO.P,U1,26,G43*%
%TO.N,Net-(U1-G43)*%
X81280000Y-97220000D03*
%TO.P,U1,27,G46*%
%TO.N,Net-(U1-G46)*%
X82550000Y-97220000D03*
%TO.P,U1,28,3V3*%
%TO.N,+3.3V*%
X83820000Y-97220000D03*
%TD*%
D12*
%TO.P,J1,1,Pin_1*%
%TO.N,GND*%
X140208000Y-91852000D03*
%TO.P,J1,2,Pin_2*%
%TO.N,+5V*%
X140208000Y-89852000D03*
%TO.P,J1,3,Pin_3*%
%TO.N,Net-(J1-Pin_3)*%
X140208000Y-87852000D03*
%TO.P,J1,4,Pin_4*%
%TO.N,Net-(J1-Pin_4)*%
X140208000Y-85852000D03*
%TD*%
%TO.P,U2,1,D5*%
%TO.N,Net-(U1-G46)*%
X96520000Y-96520000D03*
%TO.P,U2,2,D4*%
%TO.N,Net-(U1-G43)*%
X99060000Y-96520000D03*
%TO.P,U2,3,WR*%
%TO.N,Net-(U1-G44)*%
X101600000Y-96520000D03*
%TO.P,U2,4,A1*%
%TO.N,Net-(U1-G41)*%
X104140000Y-96520000D03*
%TO.P,U2,5,A0*%
%TO.N,Net-(U1-G40)*%
X106680000Y-96520000D03*
%TO.P,U2,6,VDD*%
%TO.N,+3.3V*%
X109220000Y-96520000D03*
%TO.P,U2,7,GND*%
%TO.N,GND*%
X109220000Y-81280000D03*
%TO.P,U2,8,D0*%
%TO.N,Net-(U1-G9)*%
X106680000Y-81280000D03*
%TO.P,U2,9,D1*%
%TO.N,Net-(U1-G7)*%
X104140000Y-81280000D03*
%TO.P,U2,10,D2*%
%TO.N,Net-(U1-G5)*%
X101600000Y-81280000D03*
%TO.P,U2,11,D3*%
%TO.N,Net-(U1-G3)*%
X99060000Y-81280000D03*
%TO.P,U2,12,D6*%
%TO.N,Net-(U1-G1)*%
X96520000Y-81280000D03*
%TD*%
%TO.P,U3,12,D6*%
%TO.N,Net-(U1-G1)*%
X114300000Y-81280000D03*
%TO.P,U3,11,D3*%
%TO.N,Net-(U1-G3)*%
X116840000Y-81280000D03*
%TO.P,U3,10,D2*%
%TO.N,Net-(U1-G5)*%
X119380000Y-81280000D03*
%TO.P,U3,9,D1*%
%TO.N,Net-(U1-G7)*%
X121920000Y-81280000D03*
%TO.P,U3,8,D0*%
%TO.N,Net-(U1-G9)*%
X124460000Y-81280000D03*
%TO.P,U3,7,GND*%
%TO.N,GND*%
X127000000Y-81280000D03*
%TO.P,U3,6,VDD*%
%TO.N,+3.3V*%
X127000000Y-96520000D03*
%TO.P,U3,5,A0*%
%TO.N,Net-(U1-G40)*%
X124460000Y-96520000D03*
%TO.P,U3,4,A1*%
%TO.N,Net-(U1-G41)*%
X121920000Y-96520000D03*
%TO.P,U3,3,WR*%
%TO.N,Net-(U1-G42)*%
X119380000Y-96520000D03*
%TO.P,U3,2,D4*%
%TO.N,Net-(U1-G43)*%
X116840000Y-96520000D03*
%TO.P,U3,1,D5*%
%TO.N,Net-(U1-G46)*%
X114300000Y-96520000D03*
%TD*%
D13*
%TO.N,Net-(U1-G1)*%
X109982000Y-85598000D03*
%TO.N,Net-(U1-G3)*%
X113284000Y-84836000D03*
%TO.N,Net-(U1-G5)*%
X116586000Y-84074000D03*
%TO.N,Net-(U1-G7)*%
X119888000Y-83312000D03*
%TO.N,Net-(U1-G9)*%
X123190000Y-82550000D03*
%TO.N,Net-(J1-Pin_3)*%
X127762000Y-85090000D03*
%TO.N,GND*%
X83820000Y-88900000D03*
X88900000Y-88900000D03*
X78740000Y-88900000D03*
X93980000Y-80010000D03*
X99060000Y-88900000D03*
X129540000Y-88900000D03*
X114300000Y-88900000D03*
X73660000Y-88900000D03*
X109220000Y-88900000D03*
X129540000Y-82550000D03*
X76200000Y-91440000D03*
X102870000Y-80010000D03*
X93980000Y-88900000D03*
X124460000Y-88900000D03*
X111760000Y-80010000D03*
X128787797Y-92592797D03*
X119380000Y-88900000D03*
X81280000Y-91440000D03*
X128270000Y-80010000D03*
X104140000Y-88900000D03*
X120650000Y-80010000D03*
%TO.N,Net-(U1-G41)*%
X120142000Y-94708000D03*
%TO.N,Net-(U1-G46)*%
X111125000Y-93255000D03*
%TO.N,Net-(U1-G42)*%
X116840000Y-93980000D03*
%TO.N,Net-(U1-G43)*%
X114300000Y-93980000D03*
%TO.N,Net-(U1-G40)*%
X123444000Y-95504000D03*
%TD*%
D14*
%TO.N,+5V*%
X129794000Y-91694000D02*
X104394000Y-91694000D01*
X130937000Y-92837000D02*
X129794000Y-91694000D01*
X137223000Y-92837000D02*
X130937000Y-92837000D01*
X104394000Y-91694000D02*
X97917000Y-85217000D01*
X140208000Y-89852000D02*
X137223000Y-92837000D01*
X79375000Y-85217000D02*
X80137000Y-85217000D01*
X76200000Y-81280000D02*
X76200000Y-82042000D01*
X76200000Y-82042000D02*
X79375000Y-85217000D01*
D15*
X80137000Y-85217000D02*
X97917000Y-85217000D01*
D14*
%TO.N,+3.3V*%
X107696000Y-98044000D02*
X109220000Y-96520000D01*
X85344000Y-98044000D02*
X107696000Y-98044000D01*
X83820000Y-96520000D02*
X85344000Y-98044000D01*
X125476000Y-98044000D02*
X127000000Y-96520000D01*
X110744000Y-98044000D02*
X125476000Y-98044000D01*
X109220000Y-96520000D02*
X110744000Y-98044000D01*
D16*
%TO.N,Net-(U1-G9)*%
X84167000Y-84167000D02*
X81280000Y-81280000D01*
X103793000Y-84167000D02*
X84167000Y-84167000D01*
X106680000Y-81280000D02*
X103793000Y-84167000D01*
%TO.N,Net-(U1-G7)*%
X86257000Y-83717000D02*
X83820000Y-81280000D01*
X101703000Y-83717000D02*
X86257000Y-83717000D01*
X104140000Y-81280000D02*
X101703000Y-83717000D01*
%TO.N,Net-(U1-G5)*%
X99613000Y-83267000D02*
X88347000Y-83267000D01*
X101600000Y-81280000D02*
X99613000Y-83267000D01*
X88347000Y-83267000D02*
X86360000Y-81280000D01*
%TO.N,Net-(U1-G3)*%
X90437000Y-82817000D02*
X88900000Y-81280000D01*
X97523000Y-82817000D02*
X90437000Y-82817000D01*
X99060000Y-81280000D02*
X97523000Y-82817000D01*
%TO.N,Net-(U1-G1)*%
X92527000Y-82367000D02*
X91440000Y-81280000D01*
X96520000Y-81280000D02*
X95433000Y-82367000D01*
X95433000Y-82367000D02*
X92527000Y-82367000D01*
%TO.N,Net-(U1-G3)*%
X116840000Y-81280000D02*
X113284000Y-84836000D01*
%TO.N,Net-(U1-G5)*%
X116967000Y-83693000D02*
X116586000Y-84074000D01*
X119380000Y-81280000D02*
X116967000Y-83693000D01*
%TO.N,Net-(U1-G7)*%
X121920000Y-81280000D02*
X119888000Y-83312000D01*
%TO.N,Net-(U1-G9)*%
X124460000Y-81280000D02*
X123190000Y-82550000D01*
%TO.N,+5V*%
X76200000Y-79827000D02*
X76200000Y-81280000D01*
%TO.N,Net-(J1-Pin_3)*%
X127762000Y-85090000D02*
X137446000Y-85090000D01*
X137446000Y-85090000D02*
X140208000Y-87852000D01*
%TO.N,Net-(U1-G41)*%
X120142000Y-94708000D02*
X120142000Y-94742000D01*
X121920000Y-96520000D02*
X120142000Y-94742000D01*
X79695000Y-94295000D02*
X77470000Y-96520000D01*
X101915000Y-94295000D02*
X79695000Y-94295000D01*
X104140000Y-96520000D02*
X101915000Y-94295000D01*
%TO.N,Net-(U1-G46)*%
X111125000Y-93345000D02*
X111125000Y-93255000D01*
X95645000Y-95645000D02*
X83425000Y-95645000D01*
X114300000Y-96520000D02*
X111125000Y-93345000D01*
X83425000Y-95645000D02*
X82550000Y-96520000D01*
X96520000Y-96520000D02*
X95645000Y-95645000D01*
%TO.N,Net-(U1-G42)*%
X80010000Y-96520000D02*
X80010000Y-97881998D01*
X119380000Y-96520000D02*
X116840000Y-93980000D01*
%TO.N,Net-(U1-G43)*%
X116840000Y-96520000D02*
X114300000Y-93980000D01*
X97735000Y-95195000D02*
X82605000Y-95195000D01*
X82605000Y-95195000D02*
X81280000Y-96520000D01*
X99060000Y-96520000D02*
X97735000Y-95195000D01*
%TO.N,Net-(U1-G40)*%
X104005000Y-93845000D02*
X77605000Y-93845000D01*
X124460000Y-96520000D02*
X123444000Y-95504000D01*
X106680000Y-96520000D02*
X104005000Y-93845000D01*
X77605000Y-93845000D02*
X74930000Y-96520000D01*
%TO.N,Net-(U1-G44)*%
X101600000Y-96520000D02*
X99825000Y-94745000D01*
X80515000Y-94745000D02*
X78740000Y-96520000D01*
X99825000Y-94745000D02*
X80515000Y-94745000D01*
%TO.N,Net-(U1-G1)*%
X114300000Y-81280000D02*
X109982000Y-85598000D01*
%TD*%
%TA.AperFunction,Conductor*%
%TO.N,GND*%
G36*
X129498809Y-92464185D02*
G01*
X129519451Y-92480819D01*
X129949551Y-92910918D01*
X130354049Y-93315416D01*
X130435780Y-93397147D01*
X130458585Y-93419952D01*
X130581498Y-93502080D01*
X130581511Y-93502087D01*
X130718082Y-93558656D01*
X130718087Y-93558658D01*
X130718091Y-93558658D01*
X130718092Y-93558659D01*
X130863079Y-93587500D01*
X130876000Y-93587500D01*
X130943039Y-93607185D01*
X130988794Y-93659989D01*
X131000000Y-93711500D01*
X131000000Y-96948638D01*
X130980315Y-97015677D01*
X130963681Y-97036319D01*
X129036319Y-98963681D01*
X128974996Y-98997166D01*
X128948638Y-99000000D01*
X125752551Y-99000000D01*
X125685512Y-98980315D01*
X125639757Y-98927511D01*
X125629813Y-98858353D01*
X125658838Y-98794797D01*
X125705099Y-98761439D01*
X125831490Y-98709086D01*
X125831489Y-98709086D01*
X125831495Y-98709084D01*
X125880729Y-98676186D01*
X125954416Y-98626952D01*
X126769728Y-97811638D01*
X126831049Y-97778155D01*
X126868211Y-97775793D01*
X126978802Y-97785468D01*
X126999999Y-97787323D01*
X127000000Y-97787323D01*
X127000002Y-97787323D01*
X127055017Y-97782509D01*
X127220068Y-97768070D01*
X127433450Y-97710894D01*
X127633662Y-97617534D01*
X127814620Y-97490826D01*
X127970826Y-97334620D01*
X128097534Y-97153662D01*
X128190894Y-96953450D01*
X128248070Y-96740068D01*
X128267323Y-96520000D01*
X128248070Y-96299932D01*
X128190894Y-96086550D01*
X128097534Y-95886339D01*
X127970826Y-95705380D01*
X127814620Y-95549174D01*
X127814616Y-95549171D01*
X127814615Y-95549170D01*
X127633666Y-95422468D01*
X127633662Y-95422466D01*
X127624824Y-95418345D01*
X127433450Y-95329106D01*
X127433447Y-95329105D01*
X127433445Y-95329104D01*
X127220070Y-95271930D01*
X127220062Y-95271929D01*
X127000002Y-95252677D01*
X126999998Y-95252677D01*
X126779937Y-95271929D01*
X126779929Y-95271930D01*
X126566554Y-95329104D01*
X126566548Y-95329107D01*
X126366340Y-95422465D01*
X126366338Y-95422466D01*
X126185377Y-95549175D01*
X126029175Y-95705377D01*
X125902466Y-95886338D01*
X125902465Y-95886340D01*
X125842382Y-96015189D01*
X125796209Y-96067628D01*
X125729016Y-96086780D01*
X125662135Y-96066564D01*
X125617618Y-96015189D01*
X125571770Y-95916868D01*
X125557534Y-95886339D01*
X125430826Y-95705380D01*
X125274620Y-95549174D01*
X125274616Y-95549171D01*
X125274615Y-95549170D01*
X125093666Y-95422468D01*
X125093662Y-95422466D01*
X125084824Y-95418345D01*
X124893450Y-95329106D01*
X124893447Y-95329105D01*
X124893445Y-95329104D01*
X124680070Y-95271930D01*
X124680062Y-95271929D01*
X124460002Y-95252677D01*
X124459997Y-95252677D01*
X124411607Y-95256910D01*
X124343107Y-95243143D01*
X124292925Y-95194527D01*
X124282873Y-95171708D01*
X124271179Y-95135716D01*
X124271178Y-95135714D01*
X124271177Y-95135711D01*
X124176534Y-94971785D01*
X124049870Y-94831111D01*
X123896734Y-94719851D01*
X123896729Y-94719848D01*
X123723807Y-94642857D01*
X123723802Y-94642855D01*
X123578001Y-94611865D01*
X123538646Y-94603500D01*
X123349354Y-94603500D01*
X123316897Y-94610398D01*
X123164197Y-94642855D01*
X123164192Y-94642857D01*
X122991270Y-94719848D01*
X122991265Y-94719851D01*
X122838129Y-94831111D01*
X122711466Y-94971785D01*
X122616821Y-95135715D01*
X122616818Y-95135722D01*
X122570909Y-95277016D01*
X122531471Y-95334692D01*
X122467113Y-95361890D01*
X122400573Y-95351080D01*
X122353450Y-95329106D01*
X122353447Y-95329105D01*
X122353445Y-95329104D01*
X122140070Y-95271930D01*
X122140062Y-95271929D01*
X121920002Y-95252677D01*
X121919998Y-95252677D01*
X121773360Y-95265506D01*
X121699932Y-95271930D01*
X121699930Y-95271930D01*
X121699926Y-95271931D01*
X121655977Y-95283707D01*
X121586127Y-95282044D01*
X121536204Y-95251613D01*
X121083779Y-94799188D01*
X121050294Y-94737865D01*
X121047460Y-94711507D01*
X121047460Y-94708002D01*
X121044746Y-94682181D01*
X121027674Y-94519744D01*
X120969179Y-94339716D01*
X120874533Y-94175784D01*
X120747871Y-94035112D01*
X120747870Y-94035111D01*
X120594734Y-93923851D01*
X120594729Y-93923848D01*
X120421807Y-93846857D01*
X120421802Y-93846855D01*
X120276001Y-93815865D01*
X120236646Y-93807500D01*
X120047354Y-93807500D01*
X120014897Y-93814398D01*
X119862197Y-93846855D01*
X119862192Y-93846857D01*
X119689270Y-93923848D01*
X119689265Y-93923851D01*
X119536129Y-94035111D01*
X119409466Y-94175785D01*
X119314821Y-94339715D01*
X119314818Y-94339722D01*
X119258772Y-94512216D01*
X119256326Y-94519744D01*
X119236540Y-94708000D01*
X119256326Y-94896256D01*
X119256327Y-94896259D01*
X119314818Y-95076277D01*
X119314820Y-95076282D01*
X119314821Y-95076284D01*
X119317579Y-95081061D01*
X119334050Y-95148961D01*
X119311198Y-95214987D01*
X119256276Y-95258177D01*
X119220999Y-95266587D01*
X119159932Y-95271930D01*
X119159926Y-95271931D01*
X119115977Y-95283707D01*
X119046127Y-95282044D01*
X118996204Y-95251613D01*
X117778960Y-94034369D01*
X117745475Y-93973046D01*
X117743323Y-93959668D01*
X117725674Y-93791744D01*
X117667179Y-93611716D01*
X117572533Y-93447784D01*
X117445871Y-93307112D01*
X117423267Y-93290689D01*
X117292734Y-93195851D01*
X117292729Y-93195848D01*
X117119807Y-93118857D01*
X117119802Y-93118855D01*
X116974001Y-93087865D01*
X116934646Y-93079500D01*
X116745354Y-93079500D01*
X116712897Y-93086398D01*
X116560197Y-93118855D01*
X116560192Y-93118857D01*
X116387270Y-93195848D01*
X116387265Y-93195851D01*
X116234129Y-93307111D01*
X116107466Y-93447785D01*
X116012821Y-93611715D01*
X116012818Y-93611722D01*
X115955798Y-93787214D01*
X115954326Y-93791744D01*
X115934540Y-93980000D01*
X115954326Y-94168256D01*
X115954327Y-94168259D01*
X116012818Y-94348277D01*
X116012821Y-94348284D01*
X116107467Y-94512216D01*
X116142538Y-94551166D01*
X116234129Y-94652888D01*
X116387265Y-94764148D01*
X116387270Y-94764151D01*
X116560192Y-94841142D01*
X116560197Y-94841144D01*
X116745354Y-94880500D01*
X116804548Y-94880500D01*
X116871587Y-94900185D01*
X116892229Y-94916819D01*
X117024393Y-95048983D01*
X117057878Y-95110306D01*
X117052894Y-95179998D01*
X117011022Y-95235931D01*
X116945558Y-95260348D01*
X116925905Y-95260192D01*
X116840002Y-95252677D01*
X116839998Y-95252677D01*
X116693360Y-95265506D01*
X116619932Y-95271930D01*
X116619930Y-95271930D01*
X116619926Y-95271931D01*
X116575977Y-95283707D01*
X116506127Y-95282044D01*
X116456204Y-95251613D01*
X115238960Y-94034369D01*
X115205475Y-93973046D01*
X115203323Y-93959668D01*
X115185674Y-93791744D01*
X115127179Y-93611716D01*
X115032533Y-93447784D01*
X114905871Y-93307112D01*
X114883267Y-93290689D01*
X114752734Y-93195851D01*
X114752729Y-93195848D01*
X114579807Y-93118857D01*
X114579802Y-93118855D01*
X114434001Y-93087865D01*
X114394646Y-93079500D01*
X114205354Y-93079500D01*
X114172897Y-93086398D01*
X114020197Y-93118855D01*
X114020192Y-93118857D01*
X113847270Y-93195848D01*
X113847265Y-93195851D01*
X113694129Y-93307111D01*
X113567466Y-93447785D01*
X113472821Y-93611715D01*
X113472818Y-93611722D01*
X113415798Y-93787214D01*
X113414326Y-93791744D01*
X113394540Y-93980000D01*
X113414326Y-94168256D01*
X113414327Y-94168259D01*
X113472818Y-94348277D01*
X113472821Y-94348284D01*
X113567467Y-94512216D01*
X113602538Y-94551166D01*
X113694129Y-94652888D01*
X113847265Y-94764148D01*
X113847270Y-94764151D01*
X114020192Y-94841142D01*
X114020197Y-94841144D01*
X114205354Y-94880500D01*
X114264548Y-94880500D01*
X114331587Y-94900185D01*
X114352229Y-94916819D01*
X114484393Y-95048983D01*
X114517878Y-95110306D01*
X114512894Y-95179998D01*
X114471022Y-95235931D01*
X114405558Y-95260348D01*
X114385905Y-95260192D01*
X114300002Y-95252677D01*
X114299998Y-95252677D01*
X114153360Y-95265506D01*
X114079932Y-95271930D01*
X114079930Y-95271930D01*
X114079926Y-95271931D01*
X114035976Y-95283707D01*
X113966126Y-95282043D01*
X113916203Y-95251613D01*
X112061737Y-93397147D01*
X112028252Y-93335824D01*
X112026097Y-93296507D01*
X112030460Y-93255000D01*
X112010674Y-93066744D01*
X111952179Y-92886716D01*
X111857533Y-92722784D01*
X111793322Y-92651471D01*
X111763093Y-92588481D01*
X111771718Y-92519146D01*
X111816459Y-92465480D01*
X111883112Y-92444522D01*
X111885473Y-92444500D01*
X129431770Y-92444500D01*
X129498809Y-92464185D01*
G37*
%TD.AperFunction*%
%TA.AperFunction,Conductor*%
G36*
X71370000Y-97346000D02*
G01*
X71350315Y-97413039D01*
X71297511Y-97458794D01*
X71246000Y-97470000D01*
X70994000Y-97470000D01*
X70926961Y-97450315D01*
X70881206Y-97397511D01*
X70870000Y-97346000D01*
X70870000Y-96580180D01*
X70904669Y-96663879D01*
X70976121Y-96735331D01*
X71069476Y-96774000D01*
X71170524Y-96774000D01*
X71263879Y-96735331D01*
X71335331Y-96663879D01*
X71370000Y-96580180D01*
X71370000Y-97346000D01*
G37*
%TD.AperFunction*%
%TA.AperFunction,Conductor*%
G36*
X70205203Y-81773604D02*
G01*
X70233907Y-81809903D01*
X70263897Y-81867317D01*
X70272302Y-81883407D01*
X70400890Y-82041109D01*
X70466511Y-82094615D01*
X70558593Y-82169698D01*
X70738951Y-82263909D01*
X70934582Y-82319886D01*
X71053963Y-82330500D01*
X71186036Y-82330499D01*
X71305418Y-82319886D01*
X71501049Y-82263909D01*
X71681407Y-82169698D01*
X71681411Y-82169694D01*
X71686661Y-82166236D01*
X71688303Y-82168728D01*
X71740765Y-82146508D01*
X71809621Y-82158366D01*
X71822900Y-82166900D01*
X71823339Y-82166236D01*
X71828590Y-82169696D01*
X71828591Y-82169696D01*
X71828593Y-82169698D01*
X72008951Y-82263909D01*
X72204582Y-82319886D01*
X72323963Y-82330500D01*
X72456036Y-82330499D01*
X72575418Y-82319886D01*
X72771049Y-82263909D01*
X72951407Y-82169698D01*
X72951411Y-82169694D01*
X72956661Y-82166236D01*
X72958303Y-82168728D01*
X73010765Y-82146508D01*
X73079621Y-82158366D01*
X73092900Y-82166900D01*
X73093339Y-82166236D01*
X73098590Y-82169696D01*
X73098591Y-82169696D01*
X73098593Y-82169698D01*
X73278951Y-82263909D01*
X73474582Y-82319886D01*
X73593963Y-82330500D01*
X73726036Y-82330499D01*
X73845418Y-82319886D01*
X74041049Y-82263909D01*
X74221407Y-82169698D01*
X74221411Y-82169694D01*
X74226661Y-82166236D01*
X74228303Y-82168728D01*
X74280765Y-82146508D01*
X74349621Y-82158366D01*
X74362900Y-82166900D01*
X74363339Y-82166236D01*
X74368590Y-82169696D01*
X74368591Y-82169696D01*
X74368593Y-82169698D01*
X74548951Y-82263909D01*
X74744582Y-82319886D01*
X74863963Y-82330500D01*
X74996036Y-82330499D01*
X75115418Y-82319886D01*
X75311049Y-82263909D01*
X75329490Y-82254275D01*
X75398020Y-82240684D01*
X75463024Y-82266300D01*
X75501462Y-82316731D01*
X75534915Y-82397494D01*
X75567812Y-82446727D01*
X75567813Y-82446730D01*
X75617046Y-82520414D01*
X75617052Y-82520421D01*
X78896584Y-85799952D01*
X78896586Y-85799954D01*
X78926058Y-85819645D01*
X78970270Y-85849186D01*
X79019505Y-85882084D01*
X79019506Y-85882084D01*
X79019507Y-85882085D01*
X79019509Y-85882086D01*
X79156082Y-85938656D01*
X79156087Y-85938658D01*
X79156091Y-85938658D01*
X79156092Y-85938659D01*
X79301079Y-85967500D01*
X79301082Y-85967500D01*
X79301083Y-85967500D01*
X79448917Y-85967500D01*
X79922725Y-85967500D01*
X79946915Y-85969882D01*
X80060618Y-85992499D01*
X80060619Y-85992500D01*
X80060620Y-85992500D01*
X97579770Y-85992500D01*
X97646809Y-86012185D01*
X97667451Y-86028819D01*
X103915580Y-92276948D01*
X103915584Y-92276951D01*
X104038498Y-92359080D01*
X104038511Y-92359087D01*
X104175082Y-92415656D01*
X104175087Y-92415658D01*
X104175091Y-92415658D01*
X104175092Y-92415659D01*
X104320079Y-92444500D01*
X104320082Y-92444500D01*
X104467917Y-92444500D01*
X110364527Y-92444500D01*
X110431566Y-92464185D01*
X110477321Y-92516989D01*
X110487265Y-92586147D01*
X110458240Y-92649703D01*
X110456677Y-92651472D01*
X110392466Y-92722785D01*
X110297821Y-92886715D01*
X110297818Y-92886722D01*
X110242845Y-93055913D01*
X110239326Y-93066744D01*
X110219540Y-93255000D01*
X110239326Y-93443256D01*
X110239327Y-93443259D01*
X110297818Y-93623277D01*
X110297821Y-93623284D01*
X110392467Y-93787216D01*
X110515491Y-93923848D01*
X110519129Y-93927888D01*
X110672265Y-94039148D01*
X110672270Y-94039151D01*
X110845192Y-94116142D01*
X110845193Y-94116142D01*
X110845197Y-94116144D01*
X111020530Y-94153412D01*
X111082011Y-94186603D01*
X111082430Y-94187020D01*
X113031613Y-96136203D01*
X113065098Y-96197526D01*
X113063707Y-96255976D01*
X113051931Y-96299926D01*
X113051930Y-96299933D01*
X113032677Y-96519997D01*
X113032677Y-96520002D01*
X113051929Y-96740062D01*
X113051930Y-96740070D01*
X113109104Y-96953445D01*
X113109105Y-96953447D01*
X113109106Y-96953450D01*
X113185415Y-97117095D01*
X113195907Y-97186173D01*
X113167387Y-97249957D01*
X113108911Y-97288196D01*
X113073033Y-97293500D01*
X111106229Y-97293500D01*
X111039190Y-97273815D01*
X111018548Y-97257181D01*
X110511640Y-96750272D01*
X110478155Y-96688949D01*
X110475793Y-96651786D01*
X110487323Y-96520000D01*
X110468070Y-96299932D01*
X110410894Y-96086550D01*
X110317534Y-95886339D01*
X110190826Y-95705380D01*
X110034620Y-95549174D01*
X110034616Y-95549171D01*
X110034615Y-95549170D01*
X109853666Y-95422468D01*
X109853662Y-95422466D01*
X109844824Y-95418345D01*
X109653450Y-95329106D01*
X109653447Y-95329105D01*
X109653445Y-95329104D01*
X109440070Y-95271930D01*
X109440062Y-95271929D01*
X109220002Y-95252677D01*
X109219998Y-95252677D01*
X108999937Y-95271929D01*
X108999929Y-95271930D01*
X108786554Y-95329104D01*
X108786548Y-95329107D01*
X108586340Y-95422465D01*
X108586338Y-95422466D01*
X108405377Y-95549175D01*
X108249175Y-95705377D01*
X108122466Y-95886338D01*
X108122465Y-95886340D01*
X108062382Y-96015189D01*
X108016209Y-96067628D01*
X107949016Y-96086780D01*
X107882135Y-96066564D01*
X107837618Y-96015189D01*
X107791770Y-95916868D01*
X107777534Y-95886339D01*
X107650826Y-95705380D01*
X107494620Y-95549174D01*
X107494616Y-95549171D01*
X107494615Y-95549170D01*
X107313666Y-95422468D01*
X107313662Y-95422466D01*
X107304824Y-95418345D01*
X107113450Y-95329106D01*
X107113447Y-95329105D01*
X107113445Y-95329104D01*
X106900070Y-95271930D01*
X106900062Y-95271929D01*
X106680002Y-95252677D01*
X106679998Y-95252677D01*
X106533360Y-95265506D01*
X106459932Y-95271930D01*
X106459930Y-95271930D01*
X106459926Y-95271931D01*
X106415976Y-95283707D01*
X106346126Y-95282043D01*
X106296203Y-95251613D01*
X104495198Y-93450608D01*
X104495178Y-93450586D01*
X104403736Y-93359144D01*
X104403728Y-93359138D01*
X104325867Y-93307113D01*
X104325865Y-93307111D01*
X104325865Y-93307112D01*
X104301285Y-93290687D01*
X104258206Y-93272844D01*
X104215126Y-93255000D01*
X104215124Y-93254998D01*
X104187455Y-93243538D01*
X104187453Y-93243537D01*
X104187452Y-93243537D01*
X104127029Y-93231518D01*
X104066610Y-93219500D01*
X104066607Y-93219500D01*
X104066606Y-93219500D01*
X77666606Y-93219500D01*
X77543393Y-93219500D01*
X77543389Y-93219500D01*
X77482971Y-93231518D01*
X77439743Y-93240116D01*
X77422546Y-93243537D01*
X77308716Y-93290687D01*
X77308707Y-93290692D01*
X77206268Y-93359140D01*
X77168262Y-93397147D01*
X77119142Y-93446267D01*
X77119139Y-93446270D01*
X75128716Y-95436692D01*
X75067393Y-95470177D01*
X75030057Y-95472524D01*
X75003652Y-95470177D01*
X74996037Y-95469500D01*
X74996035Y-95469500D01*
X74863972Y-95469500D01*
X74863964Y-95469501D01*
X74744584Y-95480113D01*
X74548954Y-95536089D01*
X74368587Y-95630305D01*
X74363340Y-95633764D01*
X74361755Y-95631359D01*
X74308663Y-95653557D01*
X74239863Y-95641379D01*
X74227062Y-95633152D01*
X74226660Y-95633764D01*
X74221412Y-95630305D01*
X74221408Y-95630303D01*
X74221407Y-95630302D01*
X74041049Y-95536091D01*
X74041048Y-95536090D01*
X74041045Y-95536089D01*
X73923829Y-95502550D01*
X73845418Y-95480114D01*
X73845415Y-95480113D01*
X73845413Y-95480113D01*
X73779102Y-95474217D01*
X73726037Y-95469500D01*
X73726032Y-95469500D01*
X73593972Y-95469500D01*
X73593964Y-95469501D01*
X73474584Y-95480113D01*
X73278954Y-95536089D01*
X73098587Y-95630305D01*
X73093340Y-95633764D01*
X73091755Y-95631359D01*
X73038663Y-95653557D01*
X72969863Y-95641379D01*
X72957062Y-95633152D01*
X72956660Y-95633764D01*
X72951412Y-95630305D01*
X72951408Y-95630303D01*
X72951407Y-95630302D01*
X72771049Y-95536091D01*
X72771048Y-95536090D01*
X72771045Y-95536089D01*
X72653829Y-95502550D01*
X72575418Y-95480114D01*
X72575415Y-95480113D01*
X72575413Y-95480113D01*
X72509102Y-95474217D01*
X72456037Y-95469500D01*
X72456032Y-95469500D01*
X72323972Y-95469500D01*
X72323964Y-95469501D01*
X72204584Y-95480113D01*
X72008954Y-95536089D01*
X71828587Y-95630305D01*
X71823345Y-95633761D01*
X71821825Y-95631455D01*
X71768427Y-95653863D01*
X71699611Y-95641775D01*
X71686370Y-95634175D01*
X71681134Y-95630724D01*
X71500860Y-95536557D01*
X71370000Y-95499113D01*
X71370000Y-96459819D01*
X71335331Y-96376121D01*
X71263879Y-96304669D01*
X71170524Y-96266000D01*
X71069476Y-96266000D01*
X70976121Y-96304669D01*
X70904669Y-96376121D01*
X70870000Y-96459819D01*
X70870000Y-95499113D01*
X70739137Y-95536557D01*
X70558870Y-95630721D01*
X70401246Y-95759246D01*
X70272722Y-95916868D01*
X70233909Y-95991173D01*
X70185422Y-96041480D01*
X70117434Y-96057587D01*
X70051531Y-96034380D01*
X70008636Y-95979228D01*
X70000000Y-95933761D01*
X70000000Y-81867317D01*
X70019685Y-81800278D01*
X70072489Y-81754523D01*
X70141647Y-81744579D01*
X70205203Y-81773604D01*
G37*
%TD.AperFunction*%
%TA.AperFunction,Conductor*%
G36*
X129015677Y-79019685D02*
G01*
X129036319Y-79036319D01*
X130963681Y-80963681D01*
X130997166Y-81025004D01*
X131000000Y-81051362D01*
X131000000Y-84340500D01*
X130980315Y-84407539D01*
X130927511Y-84453294D01*
X130876000Y-84464500D01*
X128465748Y-84464500D01*
X128398709Y-84444815D01*
X128373600Y-84423474D01*
X128367873Y-84417114D01*
X128367869Y-84417110D01*
X128214734Y-84305851D01*
X128214729Y-84305848D01*
X128041807Y-84228857D01*
X128041802Y-84228855D01*
X127896001Y-84197865D01*
X127856646Y-84189500D01*
X127667354Y-84189500D01*
X127634897Y-84196398D01*
X127482197Y-84228855D01*
X127482192Y-84228857D01*
X127309270Y-84305848D01*
X127309265Y-84305851D01*
X127156129Y-84417111D01*
X127029466Y-84557785D01*
X126934821Y-84721715D01*
X126934818Y-84721722D01*
X126876327Y-84901740D01*
X126876326Y-84901744D01*
X126856540Y-85090000D01*
X126876326Y-85278256D01*
X126876327Y-85278259D01*
X126934818Y-85458277D01*
X126934821Y-85458284D01*
X127029467Y-85622216D01*
X127131185Y-85735185D01*
X127156129Y-85762888D01*
X127309265Y-85874148D01*
X127309270Y-85874151D01*
X127482192Y-85951142D01*
X127482197Y-85951144D01*
X127667354Y-85990500D01*
X127667355Y-85990500D01*
X127856644Y-85990500D01*
X127856646Y-85990500D01*
X128041803Y-85951144D01*
X128214730Y-85874151D01*
X128367871Y-85762888D01*
X128370788Y-85759647D01*
X128373600Y-85756526D01*
X128433087Y-85719879D01*
X128465748Y-85715500D01*
X130876000Y-85715500D01*
X130943039Y-85735185D01*
X130988794Y-85787989D01*
X131000000Y-85839500D01*
X131000000Y-91539269D01*
X130980315Y-91606308D01*
X130927511Y-91652063D01*
X130858353Y-91662007D01*
X130794797Y-91632982D01*
X130788319Y-91626950D01*
X130272421Y-91111052D01*
X130272414Y-91111046D01*
X130198729Y-91061812D01*
X130198729Y-91061813D01*
X130149491Y-91028913D01*
X130012917Y-90972343D01*
X130012907Y-90972340D01*
X129867920Y-90943500D01*
X129867918Y-90943500D01*
X104756229Y-90943500D01*
X104689190Y-90923815D01*
X104668548Y-90907181D01*
X99359368Y-85598000D01*
X109076540Y-85598000D01*
X109096326Y-85786256D01*
X109096327Y-85786259D01*
X109154818Y-85966277D01*
X109154821Y-85966284D01*
X109249467Y-86130216D01*
X109376129Y-86270888D01*
X109529265Y-86382148D01*
X109529270Y-86382151D01*
X109702192Y-86459142D01*
X109702197Y-86459144D01*
X109887354Y-86498500D01*
X109887355Y-86498500D01*
X110076644Y-86498500D01*
X110076646Y-86498500D01*
X110261803Y-86459144D01*
X110434730Y-86382151D01*
X110587871Y-86270888D01*
X110714533Y-86130216D01*
X110809179Y-85966284D01*
X110867674Y-85786256D01*
X110885321Y-85618345D01*
X110911905Y-85553732D01*
X110920952Y-85543636D01*
X113916204Y-82548384D01*
X113977525Y-82514901D01*
X114035976Y-82516292D01*
X114079932Y-82528070D01*
X114214090Y-82539807D01*
X114299998Y-82547323D01*
X114300000Y-82547323D01*
X114300001Y-82547323D01*
X114310345Y-82546417D01*
X114385905Y-82539807D01*
X114454403Y-82553573D01*
X114504586Y-82602188D01*
X114520520Y-82670217D01*
X114497145Y-82736061D01*
X114484392Y-82751016D01*
X113336229Y-83899181D01*
X113274906Y-83932666D01*
X113248548Y-83935500D01*
X113189354Y-83935500D01*
X113156897Y-83942398D01*
X113004197Y-83974855D01*
X113004192Y-83974857D01*
X112831270Y-84051848D01*
X112831265Y-84051851D01*
X112678129Y-84163111D01*
X112551466Y-84303785D01*
X112456821Y-84467715D01*
X112456818Y-84467722D01*
X112424973Y-84565733D01*
X112398326Y-84647744D01*
X112378540Y-84836000D01*
X112398326Y-85024256D01*
X112398327Y-85024259D01*
X112456818Y-85204277D01*
X112456821Y-85204284D01*
X112551467Y-85368216D01*
X112632559Y-85458277D01*
X112678129Y-85508888D01*
X112831265Y-85620148D01*
X112831270Y-85620151D01*
X113004192Y-85697142D01*
X113004197Y-85697144D01*
X113189354Y-85736500D01*
X113189355Y-85736500D01*
X113378644Y-85736500D01*
X113378646Y-85736500D01*
X113563803Y-85697144D01*
X113736730Y-85620151D01*
X113889871Y-85508888D01*
X114016533Y-85368216D01*
X114111179Y-85204284D01*
X114169674Y-85024256D01*
X114187321Y-84856345D01*
X114213905Y-84791732D01*
X114222952Y-84781636D01*
X116456205Y-82548384D01*
X116517526Y-82514901D01*
X116575976Y-82516291D01*
X116619932Y-82528070D01*
X116754090Y-82539807D01*
X116839998Y-82547323D01*
X116840000Y-82547323D01*
X116840001Y-82547323D01*
X116850345Y-82546417D01*
X116925905Y-82539807D01*
X116994403Y-82553573D01*
X117044586Y-82602188D01*
X117060520Y-82670217D01*
X117037145Y-82736061D01*
X117024392Y-82751016D01*
X116638229Y-83137181D01*
X116576906Y-83170666D01*
X116550548Y-83173500D01*
X116491354Y-83173500D01*
X116458897Y-83180398D01*
X116306197Y-83212855D01*
X116306192Y-83212857D01*
X116133270Y-83289848D01*
X116133265Y-83289851D01*
X115980129Y-83401111D01*
X115853466Y-83541785D01*
X115758821Y-83705715D01*
X115758818Y-83705722D01*
X115713820Y-83844214D01*
X115700326Y-83885744D01*
X115680540Y-84074000D01*
X115700326Y-84262256D01*
X115700327Y-84262259D01*
X115758818Y-84442277D01*
X115758821Y-84442284D01*
X115853467Y-84606216D01*
X115971095Y-84736855D01*
X115980129Y-84746888D01*
X116133265Y-84858148D01*
X116133270Y-84858151D01*
X116306192Y-84935142D01*
X116306197Y-84935144D01*
X116491354Y-84974500D01*
X116491355Y-84974500D01*
X116680644Y-84974500D01*
X116680646Y-84974500D01*
X116865803Y-84935144D01*
X117038730Y-84858151D01*
X117191871Y-84746888D01*
X117318533Y-84606216D01*
X117413179Y-84442284D01*
X117471674Y-84262256D01*
X117489321Y-84094345D01*
X117515905Y-84029732D01*
X117524952Y-84019636D01*
X118996205Y-82548384D01*
X119057526Y-82514901D01*
X119115976Y-82516291D01*
X119143473Y-82523659D01*
X119203132Y-82560024D01*
X119233661Y-82622871D01*
X119225366Y-82692247D01*
X119203529Y-82726405D01*
X119155466Y-82779785D01*
X119060821Y-82943715D01*
X119060818Y-82943722D01*
X119002327Y-83123740D01*
X119002326Y-83123744D01*
X118982540Y-83312000D01*
X119002326Y-83500256D01*
X119002327Y-83500259D01*
X119060818Y-83680277D01*
X119060821Y-83680284D01*
X119155467Y-83844216D01*
X119204958Y-83899181D01*
X119282129Y-83984888D01*
X119435265Y-84096148D01*
X119435270Y-84096151D01*
X119608192Y-84173142D01*
X119608197Y-84173144D01*
X119793354Y-84212500D01*
X119793355Y-84212500D01*
X119982644Y-84212500D01*
X119982646Y-84212500D01*
X120167803Y-84173144D01*
X120340730Y-84096151D01*
X120493871Y-83984888D01*
X120620533Y-83844216D01*
X120715179Y-83680284D01*
X120773674Y-83500256D01*
X120791321Y-83332345D01*
X120817905Y-83267732D01*
X120826952Y-83257636D01*
X121536204Y-82548384D01*
X121597525Y-82514901D01*
X121655976Y-82516292D01*
X121699932Y-82528070D01*
X121834090Y-82539807D01*
X121919998Y-82547323D01*
X121920000Y-82547323D01*
X121920002Y-82547323D01*
X121975017Y-82542509D01*
X122140068Y-82528070D01*
X122140079Y-82528066D01*
X122145402Y-82527129D01*
X122145693Y-82528780D01*
X122207938Y-82530254D01*
X122265806Y-82569410D01*
X122293317Y-82633635D01*
X122293511Y-82635359D01*
X122304326Y-82738256D01*
X122304327Y-82738259D01*
X122362818Y-82918277D01*
X122362821Y-82918284D01*
X122457467Y-83082216D01*
X122506958Y-83137181D01*
X122584129Y-83222888D01*
X122737265Y-83334148D01*
X122737270Y-83334151D01*
X122910192Y-83411142D01*
X122910197Y-83411144D01*
X123095354Y-83450500D01*
X123095355Y-83450500D01*
X123284644Y-83450500D01*
X123284646Y-83450500D01*
X123469803Y-83411144D01*
X123642730Y-83334151D01*
X123795871Y-83222888D01*
X123922533Y-83082216D01*
X124017179Y-82918284D01*
X124075674Y-82738256D01*
X124086483Y-82635405D01*
X124113066Y-82570796D01*
X124170363Y-82530810D01*
X124234379Y-82528371D01*
X124234598Y-82527129D01*
X124239922Y-82528067D01*
X124239932Y-82528070D01*
X124374090Y-82539807D01*
X124459998Y-82547323D01*
X124460000Y-82547323D01*
X124460002Y-82547323D01*
X124515017Y-82542509D01*
X124680068Y-82528070D01*
X124893450Y-82470894D01*
X125093662Y-82377534D01*
X125274620Y-82250826D01*
X125430826Y-82094620D01*
X125557534Y-81913662D01*
X125617894Y-81784218D01*
X125664066Y-81731779D01*
X125731259Y-81712627D01*
X125798141Y-81732843D01*
X125842658Y-81784219D01*
X125902898Y-81913405D01*
X125902901Y-81913411D01*
X125948258Y-81978187D01*
X125948259Y-81978188D01*
X126619000Y-81307447D01*
X126619000Y-81330160D01*
X126644964Y-81427061D01*
X126695124Y-81513940D01*
X126766060Y-81584876D01*
X126852939Y-81635036D01*
X126949840Y-81661000D01*
X126972553Y-81661000D01*
X126301810Y-82331740D01*
X126366590Y-82377099D01*
X126366592Y-82377100D01*
X126566715Y-82470419D01*
X126566729Y-82470424D01*
X126780013Y-82527573D01*
X126780023Y-82527575D01*
X126999999Y-82546821D01*
X127000001Y-82546821D01*
X127219976Y-82527575D01*
X127219986Y-82527573D01*
X127433270Y-82470424D01*
X127433284Y-82470419D01*
X127633407Y-82377100D01*
X127633417Y-82377094D01*
X127698188Y-82331741D01*
X127027448Y-81661000D01*
X127050160Y-81661000D01*
X127147061Y-81635036D01*
X127233940Y-81584876D01*
X127304876Y-81513940D01*
X127355036Y-81427061D01*
X127381000Y-81330160D01*
X127381000Y-81307447D01*
X128051741Y-81978188D01*
X128097094Y-81913417D01*
X128097100Y-81913407D01*
X128190419Y-81713284D01*
X128190424Y-81713270D01*
X128247573Y-81499986D01*
X128247575Y-81499976D01*
X128266821Y-81280000D01*
X128266821Y-81279999D01*
X128247575Y-81060023D01*
X128247573Y-81060013D01*
X128190424Y-80846729D01*
X128190420Y-80846720D01*
X128097096Y-80646586D01*
X128051741Y-80581811D01*
X128051740Y-80581810D01*
X127381000Y-81252551D01*
X127381000Y-81229840D01*
X127355036Y-81132939D01*
X127304876Y-81046060D01*
X127233940Y-80975124D01*
X127147061Y-80924964D01*
X127050160Y-80899000D01*
X127027448Y-80899000D01*
X127698188Y-80228259D01*
X127698187Y-80228258D01*
X127633411Y-80182901D01*
X127633405Y-80182898D01*
X127433284Y-80089580D01*
X127433270Y-80089575D01*
X127219986Y-80032426D01*
X127219976Y-80032424D01*
X127000001Y-80013179D01*
X126999999Y-80013179D01*
X126780023Y-80032424D01*
X126780013Y-80032426D01*
X126566729Y-80089575D01*
X126566720Y-80089579D01*
X126366590Y-80182901D01*
X126301811Y-80228258D01*
X126972553Y-80899000D01*
X126949840Y-80899000D01*
X126852939Y-80924964D01*
X126766060Y-80975124D01*
X126695124Y-81046060D01*
X126644964Y-81132939D01*
X126619000Y-81229840D01*
X126619000Y-81252553D01*
X125948258Y-80581811D01*
X125902901Y-80646590D01*
X125842658Y-80775781D01*
X125796485Y-80828220D01*
X125729292Y-80847372D01*
X125662411Y-80827156D01*
X125617894Y-80775781D01*
X125557534Y-80646340D01*
X125557533Y-80646338D01*
X125430827Y-80465381D01*
X125430823Y-80465377D01*
X125274620Y-80309174D01*
X125274616Y-80309171D01*
X125274615Y-80309170D01*
X125093666Y-80182468D01*
X125093662Y-80182466D01*
X125093660Y-80182465D01*
X124893450Y-80089106D01*
X124893447Y-80089105D01*
X124893445Y-80089104D01*
X124680070Y-80031930D01*
X124680062Y-80031929D01*
X124460002Y-80012677D01*
X124459998Y-80012677D01*
X124239937Y-80031929D01*
X124239929Y-80031930D01*
X124026554Y-80089104D01*
X124026548Y-80089107D01*
X123826340Y-80182465D01*
X123826338Y-80182466D01*
X123645377Y-80309175D01*
X123489175Y-80465377D01*
X123362466Y-80646338D01*
X123362465Y-80646340D01*
X123302382Y-80775189D01*
X123256209Y-80827628D01*
X123189016Y-80846780D01*
X123122135Y-80826564D01*
X123077618Y-80775189D01*
X123017534Y-80646340D01*
X123017533Y-80646338D01*
X122890827Y-80465381D01*
X122890823Y-80465377D01*
X122734620Y-80309174D01*
X122734616Y-80309171D01*
X122734615Y-80309170D01*
X122553666Y-80182468D01*
X122553662Y-80182466D01*
X122553660Y-80182465D01*
X122353450Y-80089106D01*
X122353447Y-80089105D01*
X122353445Y-80089104D01*
X122140070Y-80031930D01*
X122140062Y-80031929D01*
X121920002Y-80012677D01*
X121919998Y-80012677D01*
X121699937Y-80031929D01*
X121699929Y-80031930D01*
X121486554Y-80089104D01*
X121486548Y-80089107D01*
X121286340Y-80182465D01*
X121286338Y-80182466D01*
X121105377Y-80309175D01*
X120949175Y-80465377D01*
X120822466Y-80646338D01*
X120822465Y-80646340D01*
X120762382Y-80775189D01*
X120716209Y-80827628D01*
X120649016Y-80846780D01*
X120582135Y-80826564D01*
X120537618Y-80775189D01*
X120477534Y-80646340D01*
X120477533Y-80646338D01*
X120350827Y-80465381D01*
X120350823Y-80465377D01*
X120194620Y-80309174D01*
X120194616Y-80309171D01*
X120194615Y-80309170D01*
X120013666Y-80182468D01*
X120013662Y-80182466D01*
X120013660Y-80182465D01*
X119813450Y-80089106D01*
X119813447Y-80089105D01*
X119813445Y-80089104D01*
X119600070Y-80031930D01*
X119600062Y-80031929D01*
X119380002Y-80012677D01*
X119379998Y-80012677D01*
X119159937Y-80031929D01*
X119159929Y-80031930D01*
X118946554Y-80089104D01*
X118946548Y-80089107D01*
X118746340Y-80182465D01*
X118746338Y-80182466D01*
X118565377Y-80309175D01*
X118409175Y-80465377D01*
X118282466Y-80646338D01*
X118282465Y-80646340D01*
X118222382Y-80775189D01*
X118176209Y-80827628D01*
X118109016Y-80846780D01*
X118042135Y-80826564D01*
X117997618Y-80775189D01*
X117937534Y-80646340D01*
X117937533Y-80646338D01*
X117810827Y-80465381D01*
X117810823Y-80465377D01*
X117654620Y-80309174D01*
X117654616Y-80309171D01*
X117654615Y-80309170D01*
X117473666Y-80182468D01*
X117473662Y-80182466D01*
X117473660Y-80182465D01*
X117273450Y-80089106D01*
X117273447Y-80089105D01*
X117273445Y-80089104D01*
X117060070Y-80031930D01*
X117060062Y-80031929D01*
X116840002Y-80012677D01*
X116839998Y-80012677D01*
X116619937Y-80031929D01*
X116619929Y-80031930D01*
X116406554Y-80089104D01*
X116406548Y-80089107D01*
X116206340Y-80182465D01*
X116206338Y-80182466D01*
X116025377Y-80309175D01*
X115869175Y-80465377D01*
X115742466Y-80646338D01*
X115742465Y-80646340D01*
X115682382Y-80775189D01*
X115636209Y-80827628D01*
X115569016Y-80846780D01*
X115502135Y-80826564D01*
X115457618Y-80775189D01*
X115397534Y-80646340D01*
X115397533Y-80646338D01*
X115270827Y-80465381D01*
X115270823Y-80465377D01*
X115114620Y-80309174D01*
X115114616Y-80309171D01*
X115114615Y-80309170D01*
X114933666Y-80182468D01*
X114933662Y-80182466D01*
X114933660Y-80182465D01*
X114733450Y-80089106D01*
X114733447Y-80089105D01*
X114733445Y-80089104D01*
X114520070Y-80031930D01*
X114520062Y-80031929D01*
X114300002Y-80012677D01*
X114299998Y-80012677D01*
X114079937Y-80031929D01*
X114079929Y-80031930D01*
X113866554Y-80089104D01*
X113866548Y-80089107D01*
X113666340Y-80182465D01*
X113666338Y-80182466D01*
X113485377Y-80309175D01*
X113329175Y-80465377D01*
X113202466Y-80646338D01*
X113202465Y-80646340D01*
X113109107Y-80846548D01*
X113109104Y-80846554D01*
X113051930Y-81059929D01*
X113051929Y-81059937D01*
X113032677Y-81279997D01*
X113032677Y-81280002D01*
X113051930Y-81500066D01*
X113051930Y-81500070D01*
X113063707Y-81544021D01*
X113062044Y-81613871D01*
X113031613Y-81663795D01*
X110034229Y-84661181D01*
X109972906Y-84694666D01*
X109946548Y-84697500D01*
X109887354Y-84697500D01*
X109854897Y-84704398D01*
X109702197Y-84736855D01*
X109702192Y-84736857D01*
X109529270Y-84813848D01*
X109529265Y-84813851D01*
X109376129Y-84925111D01*
X109249466Y-85065785D01*
X109154821Y-85229715D01*
X109154818Y-85229722D01*
X109109820Y-85368214D01*
X109096326Y-85409744D01*
X109076540Y-85598000D01*
X99359368Y-85598000D01*
X98765549Y-85004181D01*
X98732064Y-84942858D01*
X98737048Y-84873166D01*
X98778920Y-84817233D01*
X98844384Y-84792816D01*
X98853230Y-84792500D01*
X103854607Y-84792500D01*
X103915029Y-84780481D01*
X103975452Y-84768463D01*
X103975455Y-84768461D01*
X103975458Y-84768461D01*
X104008787Y-84754654D01*
X104008786Y-84754654D01*
X104008792Y-84754652D01*
X104089286Y-84721312D01*
X104170376Y-84667128D01*
X104191733Y-84652858D01*
X104278858Y-84565733D01*
X104278858Y-84565731D01*
X104289066Y-84555524D01*
X104289067Y-84555521D01*
X106296205Y-82548384D01*
X106357526Y-82514901D01*
X106415976Y-82516291D01*
X106459932Y-82528070D01*
X106594090Y-82539807D01*
X106679998Y-82547323D01*
X106680000Y-82547323D01*
X106680002Y-82547323D01*
X106735017Y-82542509D01*
X106900068Y-82528070D01*
X107113450Y-82470894D01*
X107313662Y-82377534D01*
X107494620Y-82250826D01*
X107650826Y-82094620D01*
X107777534Y-81913662D01*
X107837894Y-81784218D01*
X107884066Y-81731779D01*
X107951259Y-81712627D01*
X108018141Y-81732843D01*
X108062658Y-81784219D01*
X108122898Y-81913405D01*
X108122901Y-81913411D01*
X108168258Y-81978187D01*
X108168259Y-81978188D01*
X108839000Y-81307447D01*
X108839000Y-81330160D01*
X108864964Y-81427061D01*
X108915124Y-81513940D01*
X108986060Y-81584876D01*
X109072939Y-81635036D01*
X109169840Y-81661000D01*
X109192553Y-81661000D01*
X108521810Y-82331740D01*
X108586590Y-82377099D01*
X108586592Y-82377100D01*
X108786715Y-82470419D01*
X108786729Y-82470424D01*
X109000013Y-82527573D01*
X109000023Y-82527575D01*
X109219999Y-82546821D01*
X109220001Y-82546821D01*
X109439976Y-82527575D01*
X109439986Y-82527573D01*
X109653270Y-82470424D01*
X109653284Y-82470419D01*
X109853407Y-82377100D01*
X109853417Y-82377094D01*
X109918188Y-82331741D01*
X109247448Y-81661000D01*
X109270160Y-81661000D01*
X109367061Y-81635036D01*
X109453940Y-81584876D01*
X109524876Y-81513940D01*
X109575036Y-81427061D01*
X109601000Y-81330160D01*
X109601000Y-81307447D01*
X110271741Y-81978188D01*
X110317094Y-81913417D01*
X110317100Y-81913407D01*
X110410419Y-81713284D01*
X110410424Y-81713270D01*
X110467573Y-81499986D01*
X110467575Y-81499976D01*
X110486821Y-81280000D01*
X110486821Y-81279999D01*
X110467575Y-81060023D01*
X110467573Y-81060013D01*
X110410424Y-80846729D01*
X110410420Y-80846720D01*
X110317096Y-80646586D01*
X110271741Y-80581811D01*
X110271740Y-80581810D01*
X109601000Y-81252551D01*
X109601000Y-81229840D01*
X109575036Y-81132939D01*
X109524876Y-81046060D01*
X109453940Y-80975124D01*
X109367061Y-80924964D01*
X109270160Y-80899000D01*
X109247448Y-80899000D01*
X109918188Y-80228259D01*
X109918187Y-80228258D01*
X109853411Y-80182901D01*
X109853405Y-80182898D01*
X109653284Y-80089580D01*
X109653270Y-80089575D01*
X109439986Y-80032426D01*
X109439976Y-80032424D01*
X109220001Y-80013179D01*
X109219999Y-80013179D01*
X109000023Y-80032424D01*
X109000013Y-80032426D01*
X108786729Y-80089575D01*
X108786720Y-80089579D01*
X108586590Y-80182901D01*
X108521811Y-80228258D01*
X109192553Y-80899000D01*
X109169840Y-80899000D01*
X109072939Y-80924964D01*
X108986060Y-80975124D01*
X108915124Y-81046060D01*
X108864964Y-81132939D01*
X108839000Y-81229840D01*
X108839000Y-81252553D01*
X108168258Y-80581811D01*
X108122901Y-80646590D01*
X108062658Y-80775781D01*
X108016485Y-80828220D01*
X107949292Y-80847372D01*
X107882411Y-80827156D01*
X107837894Y-80775781D01*
X107777534Y-80646340D01*
X107777533Y-80646338D01*
X107650827Y-80465381D01*
X107650823Y-80465377D01*
X107494620Y-80309174D01*
X107494616Y-80309171D01*
X107494615Y-80309170D01*
X107313666Y-80182468D01*
X107313662Y-80182466D01*
X107313660Y-80182465D01*
X107113450Y-80089106D01*
X107113447Y-80089105D01*
X107113445Y-80089104D01*
X106900070Y-80031930D01*
X106900062Y-80031929D01*
X106680002Y-80012677D01*
X106679998Y-80012677D01*
X106459937Y-80031929D01*
X106459929Y-80031930D01*
X106246554Y-80089104D01*
X106246548Y-80089107D01*
X106046340Y-80182465D01*
X106046338Y-80182466D01*
X105865377Y-80309175D01*
X105709175Y-80465377D01*
X105582466Y-80646338D01*
X105582465Y-80646340D01*
X105522382Y-80775189D01*
X105476209Y-80827628D01*
X105409016Y-80846780D01*
X105342135Y-80826564D01*
X105297618Y-80775189D01*
X105237534Y-80646340D01*
X105237533Y-80646338D01*
X105110827Y-80465381D01*
X105110823Y-80465377D01*
X104954620Y-80309174D01*
X104954616Y-80309171D01*
X104954615Y-80309170D01*
X104773666Y-80182468D01*
X104773662Y-80182466D01*
X104773660Y-80182465D01*
X104573450Y-80089106D01*
X104573447Y-80089105D01*
X104573445Y-80089104D01*
X104360070Y-80031930D01*
X104360062Y-80031929D01*
X104140002Y-80012677D01*
X104139998Y-80012677D01*
X103919937Y-80031929D01*
X103919929Y-80031930D01*
X103706554Y-80089104D01*
X103706548Y-80089107D01*
X103506340Y-80182465D01*
X103506338Y-80182466D01*
X103325377Y-80309175D01*
X103169175Y-80465377D01*
X103042466Y-80646338D01*
X103042465Y-80646340D01*
X102982382Y-80775189D01*
X102936209Y-80827628D01*
X102869016Y-80846780D01*
X102802135Y-80826564D01*
X102757618Y-80775189D01*
X102697534Y-80646340D01*
X102697533Y-80646338D01*
X102570827Y-80465381D01*
X102570823Y-80465377D01*
X102414620Y-80309174D01*
X102414616Y-80309171D01*
X102414615Y-80309170D01*
X102233666Y-80182468D01*
X102233662Y-80182466D01*
X102233660Y-80182465D01*
X102033450Y-80089106D01*
X102033447Y-80089105D01*
X102033445Y-80089104D01*
X101820070Y-80031930D01*
X101820062Y-80031929D01*
X101600002Y-80012677D01*
X101599998Y-80012677D01*
X101379937Y-80031929D01*
X101379929Y-80031930D01*
X101166554Y-80089104D01*
X101166548Y-80089107D01*
X100966340Y-80182465D01*
X100966338Y-80182466D01*
X100785377Y-80309175D01*
X100629175Y-80465377D01*
X100502466Y-80646338D01*
X100502465Y-80646340D01*
X100442382Y-80775189D01*
X100396209Y-80827628D01*
X100329016Y-80846780D01*
X100262135Y-80826564D01*
X100217618Y-80775189D01*
X100157534Y-80646340D01*
X100157533Y-80646338D01*
X100030827Y-80465381D01*
X100030823Y-80465377D01*
X99874620Y-80309174D01*
X99874616Y-80309171D01*
X99874615Y-80309170D01*
X99693666Y-80182468D01*
X99693662Y-80182466D01*
X99693660Y-80182465D01*
X99493450Y-80089106D01*
X99493447Y-80089105D01*
X99493445Y-80089104D01*
X99280070Y-80031930D01*
X99280062Y-80031929D01*
X99060002Y-80012677D01*
X99059998Y-80012677D01*
X98839937Y-80031929D01*
X98839929Y-80031930D01*
X98626554Y-80089104D01*
X98626548Y-80089107D01*
X98426340Y-80182465D01*
X98426338Y-80182466D01*
X98245377Y-80309175D01*
X98089175Y-80465377D01*
X97962466Y-80646338D01*
X97962465Y-80646340D01*
X97902382Y-80775189D01*
X97856209Y-80827628D01*
X97789016Y-80846780D01*
X97722135Y-80826564D01*
X97677618Y-80775189D01*
X97617534Y-80646340D01*
X97617533Y-80646338D01*
X97490827Y-80465381D01*
X97490823Y-80465377D01*
X97334620Y-80309174D01*
X97334616Y-80309171D01*
X97334615Y-80309170D01*
X97153666Y-80182468D01*
X97153662Y-80182466D01*
X97153660Y-80182465D01*
X96953450Y-80089106D01*
X96953447Y-80089105D01*
X96953445Y-80089104D01*
X96740070Y-80031930D01*
X96740062Y-80031929D01*
X96520002Y-80012677D01*
X96519998Y-80012677D01*
X96299937Y-80031929D01*
X96299929Y-80031930D01*
X96086554Y-80089104D01*
X96086548Y-80089107D01*
X95886340Y-80182465D01*
X95886338Y-80182466D01*
X95705377Y-80309175D01*
X95549175Y-80465377D01*
X95422466Y-80646338D01*
X95422465Y-80646340D01*
X95329107Y-80846548D01*
X95329104Y-80846554D01*
X95271930Y-81059929D01*
X95271929Y-81059937D01*
X95252677Y-81279997D01*
X95252677Y-81280002D01*
X95271930Y-81500066D01*
X95271930Y-81500070D01*
X95283707Y-81544021D01*
X95282044Y-81613871D01*
X95251614Y-81663794D01*
X95210229Y-81705180D01*
X95148907Y-81738666D01*
X95122547Y-81741500D01*
X92837452Y-81741500D01*
X92770413Y-81721815D01*
X92749771Y-81705181D01*
X92484818Y-81440228D01*
X92451333Y-81378905D01*
X92448499Y-81352556D01*
X92448499Y-79771964D01*
X92437886Y-79652582D01*
X92381909Y-79456951D01*
X92287698Y-79276593D01*
X92287695Y-79276590D01*
X92287694Y-79276587D01*
X92227170Y-79202360D01*
X92200061Y-79137964D01*
X92212070Y-79069134D01*
X92259386Y-79017724D01*
X92323272Y-79000000D01*
X128948638Y-79000000D01*
X129015677Y-79019685D01*
G37*
%TD.AperFunction*%
%TD*%
M02*
