%TF.GenerationSoftware,KiCad,Pcbnew,8.0.3*%
%TF.CreationDate,2024-06-21T11:12:34+09:00*%
%TF.ProjectId,Unit-HDPL-1414,556e6974-2d48-4445-904c-2d313431342e,rev?*%
%TF.SameCoordinates,Original*%
%TF.FileFunction,Copper,L1,Top*%
%TF.FilePolarity,Positive*%
%FSLAX46Y46*%
G04 Gerber Fmt 4.6, Leading zero omitted, Abs format (unit mm)*
G04 Created by KiCad (PCBNEW 8.0.3) date 2024-06-21 11:12:34*
%MOMM*%
%LPD*%
G01*
G04 APERTURE LIST*
G04 Aperture macros list*
%AMRoundRect*
0 Rectangle with rounded corners*
0 $1 Rounding radius*
0 $2 $3 $4 $5 $6 $7 $8 $9 X,Y pos of 4 corners*
0 Add a 4 corners polygon primitive as box body*
4,1,4,$2,$3,$4,$5,$6,$7,$8,$9,$2,$3,0*
0 Add four circle primitives for the rounded corners*
1,1,$1+$1,$2,$3*
1,1,$1+$1,$4,$5*
1,1,$1+$1,$6,$7*
1,1,$1+$1,$8,$9*
0 Add four rect primitives between the rounded corners*
20,1,$1+$1,$2,$3,$4,$5,0*
20,1,$1+$1,$4,$5,$6,$7,0*
20,1,$1+$1,$6,$7,$8,$9,0*
20,1,$1+$1,$8,$9,$2,$3,0*%
G04 Aperture macros list end*
%TA.AperFunction,ComponentPad*%
%ADD10C,1.524000*%
%TD*%
%TA.AperFunction,ComponentPad*%
%ADD11RoundRect,0.500000X-0.008000X0.750000X-0.008000X-0.750000X0.008000X-0.750000X0.008000X0.750000X0*%
%TD*%
%TA.AperFunction,ComponentPad*%
%ADD12RoundRect,0.500000X0.008000X-0.750000X0.008000X0.750000X-0.008000X0.750000X-0.008000X-0.750000X0*%
%TD*%
%TA.AperFunction,ViaPad*%
%ADD13C,0.800000*%
%TD*%
%TA.AperFunction,Conductor*%
%ADD14C,0.250000*%
%TD*%
G04 APERTURE END LIST*
D10*
%TO.P,J1,4,Pin_4*%
%TO.N,Net-(J1-Pin_4)*%
X140208000Y-85852000D03*
%TO.P,J1,3,Pin_3*%
%TO.N,Net-(J1-Pin_3)*%
X140208000Y-87852000D03*
%TO.P,J1,2,Pin_2*%
%TO.N,+5V*%
X140208000Y-89852000D03*
%TO.P,J1,1,Pin_1*%
%TO.N,GND*%
X140208000Y-91852000D03*
%TD*%
D11*
%TO.P,U1,1,G1*%
%TO.N,Net-(U1-G1)*%
X91440000Y-80580000D03*
%TO.P,U1,2,G2*%
%TO.N,unconnected-(U1-G2-Pad2)*%
X90170000Y-80580000D03*
%TO.P,U1,3,G3*%
%TO.N,Net-(U1-G3)*%
X88900000Y-80580000D03*
%TO.P,U1,4,G4*%
%TO.N,unconnected-(U1-G4-Pad4)*%
X87630000Y-80580000D03*
%TO.P,U1,5,G5*%
%TO.N,Net-(U1-G5)*%
X86360000Y-80580000D03*
%TO.P,U1,6,G6*%
%TO.N,unconnected-(U1-G6-Pad6)*%
X85090000Y-80580000D03*
%TO.P,U1,7,G7*%
%TO.N,Net-(U1-G7)*%
X83820000Y-80580000D03*
%TO.P,U1,8,G8*%
%TO.N,unconnected-(U1-G8-Pad8)*%
X82550000Y-80580000D03*
%TO.P,U1,9,G9*%
%TO.N,Net-(U1-G9)*%
X81280000Y-80580000D03*
%TO.P,U1,10,G10*%
%TO.N,unconnected-(U1-G10-Pad10)*%
X80010000Y-80580000D03*
%TO.P,U1,11,GND*%
%TO.N,unconnected-(U1-GND-Pad11)*%
X78740000Y-80580000D03*
%TO.P,U1,12,G11*%
%TO.N,unconnected-(U1-G11-Pad12)*%
X77470000Y-80580000D03*
%TO.P,U1,13,5V*%
%TO.N,+5V*%
X76200000Y-80580000D03*
%TO.P,U1,14,G12*%
%TO.N,unconnected-(U1-G12-Pad14)*%
X74930000Y-80580000D03*
%TO.P,U1,15,G13/SDA*%
%TO.N,Net-(J1-Pin_3)*%
X73660000Y-80580000D03*
%TO.P,U1,16,G14*%
%TO.N,unconnected-(U1-G14-Pad16)*%
X72390000Y-80580000D03*
%TO.P,U1,17,G15/SCL*%
%TO.N,Net-(J1-Pin_4)*%
X71120000Y-80580000D03*
D12*
%TO.P,U1,18,GND*%
%TO.N,GND*%
X71120000Y-97220000D03*
%TO.P,U1,19,G39*%
%TO.N,unconnected-(U1-G39-Pad19)*%
X72390000Y-97220000D03*
%TO.P,U1,20,G0*%
%TO.N,unconnected-(U1-G0-Pad20)*%
X73660000Y-97220000D03*
%TO.P,U1,21,G40*%
%TO.N,Net-(U1-G40)*%
X74930000Y-97220000D03*
%TO.P,U1,22,EN*%
%TO.N,unconnected-(U1-EN-Pad22)*%
X76200000Y-97220000D03*
%TO.P,U1,23,G41*%
%TO.N,Net-(U1-G41)*%
X77470000Y-97220000D03*
%TO.P,U1,24,G44*%
%TO.N,Net-(U1-G44)*%
X78740000Y-97220000D03*
%TO.P,U1,25,G42*%
%TO.N,Net-(U1-G42)*%
X80010000Y-97220000D03*
%TO.P,U1,26,G43*%
%TO.N,Net-(U1-G43)*%
X81280000Y-97220000D03*
%TO.P,U1,27,G46*%
%TO.N,Net-(U1-G46)*%
X82550000Y-97220000D03*
%TO.P,U1,28,3V3*%
%TO.N,unconnected-(U1-3V3-Pad28)*%
X83820000Y-97220000D03*
%TD*%
D10*
%TO.P,U2,1,D6*%
%TO.N,Net-(U1-G46)*%
X96520000Y-96520000D03*
%TO.P,U2,2,D4*%
%TO.N,Net-(U1-G43)*%
X99060000Y-96520000D03*
%TO.P,U2,3,WR*%
%TO.N,Net-(U1-G44)*%
X101600000Y-96520000D03*
%TO.P,U2,4,A1*%
%TO.N,Net-(U1-G41)*%
X104140000Y-96520000D03*
%TO.P,U2,5,A0*%
%TO.N,Net-(U1-G40)*%
X106680000Y-96520000D03*
%TO.P,U2,6,VDD*%
%TO.N,+5V*%
X109220000Y-96520000D03*
%TO.P,U2,7,GND*%
%TO.N,GND*%
X96520000Y-81280000D03*
%TO.P,U2,8,D0*%
%TO.N,Net-(U1-G1)*%
X99060000Y-81280000D03*
%TO.P,U2,9,D1*%
%TO.N,Net-(U1-G3)*%
X101600000Y-81280000D03*
%TO.P,U2,10,D2*%
%TO.N,Net-(U1-G5)*%
X104140000Y-81280000D03*
%TO.P,U2,11,D3*%
%TO.N,Net-(U1-G7)*%
X106680000Y-81280000D03*
%TO.P,U2,12,D5*%
%TO.N,Net-(U1-G9)*%
X109220000Y-81280000D03*
%TD*%
%TO.P,U3,1,D6*%
%TO.N,Net-(U1-G46)*%
X114300000Y-96520000D03*
%TO.P,U3,2,D4*%
%TO.N,Net-(U1-G43)*%
X116840000Y-96520000D03*
%TO.P,U3,3,WR*%
%TO.N,Net-(U1-G42)*%
X119380000Y-96520000D03*
%TO.P,U3,4,A1*%
%TO.N,Net-(U1-G41)*%
X121920000Y-96520000D03*
%TO.P,U3,5,A0*%
%TO.N,Net-(U1-G40)*%
X124460000Y-96520000D03*
%TO.P,U3,6,VDD*%
%TO.N,+5V*%
X127000000Y-96520000D03*
%TO.P,U3,7,GND*%
%TO.N,GND*%
X114300000Y-81280000D03*
%TO.P,U3,8,D0*%
%TO.N,Net-(U1-G1)*%
X116840000Y-81280000D03*
%TO.P,U3,9,D1*%
%TO.N,Net-(U1-G3)*%
X119380000Y-81280000D03*
%TO.P,U3,10,D2*%
%TO.N,Net-(U1-G5)*%
X121920000Y-81280000D03*
%TO.P,U3,11,D3*%
%TO.N,Net-(U1-G7)*%
X124460000Y-81280000D03*
%TO.P,U3,12,D5*%
%TO.N,Net-(U1-G9)*%
X127000000Y-81280000D03*
%TD*%
D13*
%TO.N,GND*%
X129540000Y-82550000D03*
X128270000Y-80010000D03*
X120650000Y-80010000D03*
X111760000Y-80010000D03*
X102870000Y-80010000D03*
X93980000Y-80010000D03*
X81280000Y-91440000D03*
X76200000Y-91440000D03*
X73660000Y-88900000D03*
X78740000Y-88900000D03*
X83820000Y-88900000D03*
X88900000Y-88900000D03*
X93980000Y-88900000D03*
X99060000Y-88900000D03*
X104140000Y-88900000D03*
X109220000Y-88900000D03*
X114300000Y-88900000D03*
X119380000Y-88900000D03*
X124460000Y-88900000D03*
X129540000Y-88900000D03*
X128651000Y-92583000D03*
%TO.N,Net-(J1-Pin_3)*%
X127762000Y-85090000D03*
%TO.N,Net-(U1-G9)*%
X125984000Y-82296000D03*
%TO.N,Net-(U1-G41)*%
X120142000Y-94708000D03*
%TO.N,Net-(U1-G3)*%
X116078000Y-84545000D03*
%TO.N,Net-(U1-G1)*%
X112903000Y-85307000D03*
%TO.N,Net-(U1-G5)*%
X119257652Y-83942348D03*
%TO.N,Net-(U1-G46)*%
X111125000Y-93255000D03*
%TO.N,Net-(U1-G42)*%
X116840000Y-93980000D03*
%TO.N,Net-(U1-G43)*%
X114300000Y-93980000D03*
%TO.N,Net-(U1-G40)*%
X123444000Y-95504000D03*
%TO.N,Net-(U1-G7)*%
X122555000Y-83092000D03*
%TD*%
D14*
%TO.N,Net-(J1-Pin_3)*%
X137446000Y-85090000D02*
X140208000Y-87852000D01*
X127762000Y-85090000D02*
X137446000Y-85090000D01*
%TO.N,+5V*%
X137350000Y-92710000D02*
X140208000Y-89852000D01*
X130810000Y-92710000D02*
X137350000Y-92710000D01*
X130810000Y-92710000D02*
X127000000Y-96520000D01*
X127000000Y-96520000D02*
X122174000Y-91694000D01*
X76200000Y-79827000D02*
X76200000Y-81280000D01*
X97317000Y-84617000D02*
X79537000Y-84617000D01*
X122174000Y-91694000D02*
X104394000Y-91694000D01*
X79537000Y-84617000D02*
X76200000Y-81280000D01*
X104394000Y-91694000D02*
X97317000Y-84617000D01*
X109220000Y-96520000D02*
X104394000Y-91694000D01*
%TO.N,Net-(U1-G9)*%
X127000000Y-81280000D02*
X125984000Y-82296000D01*
X84167000Y-84167000D02*
X81280000Y-81280000D01*
X106333000Y-84167000D02*
X84167000Y-84167000D01*
X109220000Y-81280000D02*
X106333000Y-84167000D01*
%TO.N,Net-(U1-G41)*%
X120142000Y-94708000D02*
X120142000Y-94742000D01*
X121920000Y-96520000D02*
X120142000Y-94742000D01*
X79695000Y-94295000D02*
X77470000Y-96520000D01*
X101915000Y-94295000D02*
X79695000Y-94295000D01*
X104140000Y-96520000D02*
X101915000Y-94295000D01*
%TO.N,Net-(U1-G3)*%
X100063000Y-82817000D02*
X90437000Y-82817000D01*
X90437000Y-82817000D02*
X88900000Y-81280000D01*
X116078000Y-84545000D02*
X116115000Y-84545000D01*
X116115000Y-84545000D02*
X119380000Y-81280000D01*
X100838000Y-82042000D02*
X100063000Y-82817000D01*
X101600000Y-81280000D02*
X100838000Y-82042000D01*
%TO.N,Net-(U1-G1)*%
X112903000Y-85307000D02*
X112903000Y-85217000D01*
X112903000Y-85217000D02*
X116840000Y-81280000D01*
X98298000Y-82042000D02*
X97973000Y-82367000D01*
X97973000Y-82367000D02*
X92527000Y-82367000D01*
X99060000Y-81280000D02*
X98298000Y-82042000D01*
X92527000Y-82367000D02*
X91440000Y-81280000D01*
%TO.N,Net-(U1-G5)*%
X102153000Y-83267000D02*
X88347000Y-83267000D01*
X104140000Y-81280000D02*
X102153000Y-83267000D01*
X88347000Y-83267000D02*
X86360000Y-81280000D01*
X119257652Y-83942348D02*
X121920000Y-81280000D01*
%TO.N,Net-(U1-G46)*%
X111125000Y-93345000D02*
X111125000Y-93255000D01*
X95645000Y-95645000D02*
X83425000Y-95645000D01*
X114300000Y-96520000D02*
X111125000Y-93345000D01*
X83425000Y-95645000D02*
X82550000Y-96520000D01*
X96520000Y-96520000D02*
X95645000Y-95645000D01*
%TO.N,Net-(U1-G42)*%
X80010000Y-96520000D02*
X80010000Y-97881998D01*
X119380000Y-96520000D02*
X116840000Y-93980000D01*
%TO.N,Net-(U1-G43)*%
X116840000Y-96520000D02*
X114300000Y-93980000D01*
X97735000Y-95195000D02*
X82605000Y-95195000D01*
X82605000Y-95195000D02*
X81280000Y-96520000D01*
X99060000Y-96520000D02*
X97735000Y-95195000D01*
%TO.N,Net-(U1-G40)*%
X104005000Y-93845000D02*
X77605000Y-93845000D01*
X124460000Y-96520000D02*
X123444000Y-95504000D01*
X106680000Y-96520000D02*
X104005000Y-93845000D01*
X77605000Y-93845000D02*
X74930000Y-96520000D01*
%TO.N,Net-(U1-G44)*%
X101600000Y-96520000D02*
X99825000Y-94745000D01*
X80515000Y-94745000D02*
X78740000Y-96520000D01*
X99825000Y-94745000D02*
X80515000Y-94745000D01*
%TO.N,Net-(U1-G7)*%
X104243000Y-83717000D02*
X86257000Y-83717000D01*
X106680000Y-81280000D02*
X104243000Y-83717000D01*
X86257000Y-83717000D02*
X83820000Y-81280000D01*
X122555000Y-83092000D02*
X122648000Y-83092000D01*
X122648000Y-83092000D02*
X124460000Y-81280000D01*
%TD*%
%TA.AperFunction,Conductor*%
%TO.N,GND*%
G36*
X71370000Y-97346000D02*
G01*
X71350315Y-97413039D01*
X71297511Y-97458794D01*
X71246000Y-97470000D01*
X70994000Y-97470000D01*
X70926961Y-97450315D01*
X70881206Y-97397511D01*
X70870000Y-97346000D01*
X70870000Y-96580180D01*
X70904669Y-96663879D01*
X70976121Y-96735331D01*
X71069476Y-96774000D01*
X71170524Y-96774000D01*
X71263879Y-96735331D01*
X71335331Y-96663879D01*
X71370000Y-96580180D01*
X71370000Y-97346000D01*
G37*
%TD.AperFunction*%
%TA.AperFunction,Conductor*%
G36*
X70205203Y-81773604D02*
G01*
X70233907Y-81809903D01*
X70263897Y-81867317D01*
X70272302Y-81883407D01*
X70400890Y-82041109D01*
X70466511Y-82094615D01*
X70558593Y-82169698D01*
X70738951Y-82263909D01*
X70934582Y-82319886D01*
X71053963Y-82330500D01*
X71186036Y-82330499D01*
X71305418Y-82319886D01*
X71501049Y-82263909D01*
X71681407Y-82169698D01*
X71681411Y-82169694D01*
X71686661Y-82166236D01*
X71688303Y-82168728D01*
X71740765Y-82146508D01*
X71809621Y-82158366D01*
X71822900Y-82166900D01*
X71823339Y-82166236D01*
X71828590Y-82169696D01*
X71828591Y-82169696D01*
X71828593Y-82169698D01*
X72008951Y-82263909D01*
X72204582Y-82319886D01*
X72323963Y-82330500D01*
X72456036Y-82330499D01*
X72575418Y-82319886D01*
X72771049Y-82263909D01*
X72951407Y-82169698D01*
X72951411Y-82169694D01*
X72956661Y-82166236D01*
X72958303Y-82168728D01*
X73010765Y-82146508D01*
X73079621Y-82158366D01*
X73092900Y-82166900D01*
X73093339Y-82166236D01*
X73098590Y-82169696D01*
X73098591Y-82169696D01*
X73098593Y-82169698D01*
X73278951Y-82263909D01*
X73474582Y-82319886D01*
X73593963Y-82330500D01*
X73726036Y-82330499D01*
X73845418Y-82319886D01*
X74041049Y-82263909D01*
X74221407Y-82169698D01*
X74221411Y-82169694D01*
X74226661Y-82166236D01*
X74228303Y-82168728D01*
X74280765Y-82146508D01*
X74349621Y-82158366D01*
X74362900Y-82166900D01*
X74363339Y-82166236D01*
X74368590Y-82169696D01*
X74368591Y-82169696D01*
X74368593Y-82169698D01*
X74548951Y-82263909D01*
X74744582Y-82319886D01*
X74863963Y-82330500D01*
X74996036Y-82330499D01*
X75115418Y-82319886D01*
X75311049Y-82263909D01*
X75491407Y-82169698D01*
X75491411Y-82169694D01*
X75496661Y-82166236D01*
X75498303Y-82168728D01*
X75550765Y-82146508D01*
X75619621Y-82158366D01*
X75632900Y-82166900D01*
X75633339Y-82166236D01*
X75638590Y-82169696D01*
X75638591Y-82169696D01*
X75638593Y-82169698D01*
X75818951Y-82263909D01*
X76014582Y-82319886D01*
X76133963Y-82330500D01*
X76266036Y-82330499D01*
X76300056Y-82327474D01*
X76368573Y-82341144D01*
X76398716Y-82363306D01*
X79138263Y-85102855D01*
X79138267Y-85102858D01*
X79240710Y-85171309D01*
X79240711Y-85171309D01*
X79240715Y-85171312D01*
X79307396Y-85198931D01*
X79307398Y-85198933D01*
X79326087Y-85206674D01*
X79354548Y-85218463D01*
X79374597Y-85222451D01*
X79408196Y-85229134D01*
X79475392Y-85242501D01*
X79475394Y-85242501D01*
X79604721Y-85242501D01*
X79604741Y-85242500D01*
X97006548Y-85242500D01*
X97073587Y-85262185D01*
X97094229Y-85278819D01*
X103908141Y-92092732D01*
X104002332Y-92186923D01*
X104002338Y-92186928D01*
X106864393Y-95048983D01*
X106897878Y-95110306D01*
X106892894Y-95179998D01*
X106851022Y-95235931D01*
X106785558Y-95260348D01*
X106765905Y-95260192D01*
X106680002Y-95252677D01*
X106679998Y-95252677D01*
X106533360Y-95265506D01*
X106459932Y-95271930D01*
X106459930Y-95271930D01*
X106459926Y-95271931D01*
X106415976Y-95283707D01*
X106346126Y-95282043D01*
X106296203Y-95251613D01*
X104495198Y-93450608D01*
X104495178Y-93450586D01*
X104403735Y-93359143D01*
X104368350Y-93335500D01*
X104345467Y-93320210D01*
X104345468Y-93320210D01*
X104345466Y-93320208D01*
X104301290Y-93290690D01*
X104301286Y-93290688D01*
X104301284Y-93290687D01*
X104215126Y-93255000D01*
X104215124Y-93254998D01*
X104187455Y-93243538D01*
X104187453Y-93243537D01*
X104187452Y-93243537D01*
X104127029Y-93231518D01*
X104066610Y-93219500D01*
X104066607Y-93219500D01*
X104066606Y-93219500D01*
X77666606Y-93219500D01*
X77543393Y-93219500D01*
X77543389Y-93219500D01*
X77482971Y-93231518D01*
X77439743Y-93240116D01*
X77422546Y-93243537D01*
X77308716Y-93290687D01*
X77308707Y-93290692D01*
X77206268Y-93359140D01*
X77168262Y-93397147D01*
X77119142Y-93446267D01*
X77119139Y-93446270D01*
X75128716Y-95436692D01*
X75067393Y-95470177D01*
X75030057Y-95472524D01*
X75003652Y-95470177D01*
X74996037Y-95469500D01*
X74996035Y-95469500D01*
X74863972Y-95469500D01*
X74863964Y-95469501D01*
X74744584Y-95480113D01*
X74548954Y-95536089D01*
X74368587Y-95630305D01*
X74363340Y-95633764D01*
X74361755Y-95631359D01*
X74308663Y-95653557D01*
X74239863Y-95641379D01*
X74227062Y-95633152D01*
X74226660Y-95633764D01*
X74221412Y-95630305D01*
X74221408Y-95630303D01*
X74221407Y-95630302D01*
X74041049Y-95536091D01*
X74041048Y-95536090D01*
X74041045Y-95536089D01*
X73923829Y-95502550D01*
X73845418Y-95480114D01*
X73845415Y-95480113D01*
X73845413Y-95480113D01*
X73779102Y-95474217D01*
X73726037Y-95469500D01*
X73726032Y-95469500D01*
X73593972Y-95469500D01*
X73593964Y-95469501D01*
X73474584Y-95480113D01*
X73278954Y-95536089D01*
X73098587Y-95630305D01*
X73093340Y-95633764D01*
X73091755Y-95631359D01*
X73038663Y-95653557D01*
X72969863Y-95641379D01*
X72957062Y-95633152D01*
X72956660Y-95633764D01*
X72951412Y-95630305D01*
X72951408Y-95630303D01*
X72951407Y-95630302D01*
X72771049Y-95536091D01*
X72771048Y-95536090D01*
X72771045Y-95536089D01*
X72653829Y-95502550D01*
X72575418Y-95480114D01*
X72575415Y-95480113D01*
X72575413Y-95480113D01*
X72509102Y-95474217D01*
X72456037Y-95469500D01*
X72456032Y-95469500D01*
X72323972Y-95469500D01*
X72323964Y-95469501D01*
X72204584Y-95480113D01*
X72008954Y-95536089D01*
X71828587Y-95630305D01*
X71823345Y-95633761D01*
X71821825Y-95631455D01*
X71768427Y-95653863D01*
X71699611Y-95641775D01*
X71686370Y-95634175D01*
X71681134Y-95630724D01*
X71500860Y-95536557D01*
X71370000Y-95499113D01*
X71370000Y-96459819D01*
X71335331Y-96376121D01*
X71263879Y-96304669D01*
X71170524Y-96266000D01*
X71069476Y-96266000D01*
X70976121Y-96304669D01*
X70904669Y-96376121D01*
X70870000Y-96459819D01*
X70870000Y-95499113D01*
X70739137Y-95536557D01*
X70558870Y-95630721D01*
X70401246Y-95759246D01*
X70272722Y-95916868D01*
X70233909Y-95991173D01*
X70185422Y-96041480D01*
X70117434Y-96057587D01*
X70051531Y-96034380D01*
X70008636Y-95979228D01*
X70000000Y-95933761D01*
X70000000Y-81867317D01*
X70019685Y-81800278D01*
X70072489Y-81754523D01*
X70141647Y-81744579D01*
X70205203Y-81773604D01*
G37*
%TD.AperFunction*%
%TA.AperFunction,Conductor*%
G36*
X129015677Y-79019685D02*
G01*
X129036319Y-79036319D01*
X130963681Y-80963681D01*
X130997166Y-81025004D01*
X131000000Y-81051362D01*
X131000000Y-84340500D01*
X130980315Y-84407539D01*
X130927511Y-84453294D01*
X130876000Y-84464500D01*
X128465748Y-84464500D01*
X128398709Y-84444815D01*
X128373600Y-84423474D01*
X128367873Y-84417114D01*
X128367869Y-84417110D01*
X128214734Y-84305851D01*
X128214729Y-84305848D01*
X128041807Y-84228857D01*
X128041802Y-84228855D01*
X127896001Y-84197865D01*
X127856646Y-84189500D01*
X127667354Y-84189500D01*
X127634897Y-84196398D01*
X127482197Y-84228855D01*
X127482192Y-84228857D01*
X127309270Y-84305848D01*
X127309265Y-84305851D01*
X127156129Y-84417111D01*
X127029466Y-84557785D01*
X126934821Y-84721715D01*
X126934818Y-84721722D01*
X126876327Y-84901740D01*
X126876326Y-84901744D01*
X126856540Y-85090000D01*
X126876326Y-85278256D01*
X126876327Y-85278259D01*
X126934818Y-85458277D01*
X126934821Y-85458284D01*
X127029467Y-85622216D01*
X127131185Y-85735185D01*
X127156129Y-85762888D01*
X127309265Y-85874148D01*
X127309270Y-85874151D01*
X127482192Y-85951142D01*
X127482197Y-85951144D01*
X127667354Y-85990500D01*
X127667355Y-85990500D01*
X127856644Y-85990500D01*
X127856646Y-85990500D01*
X128041803Y-85951144D01*
X128214730Y-85874151D01*
X128367871Y-85762888D01*
X128370788Y-85759647D01*
X128373600Y-85756526D01*
X128433087Y-85719879D01*
X128465748Y-85715500D01*
X130876000Y-85715500D01*
X130943039Y-85735185D01*
X130988794Y-85787989D01*
X131000000Y-85839500D01*
X131000000Y-91960499D01*
X130980315Y-92027538D01*
X130927511Y-92073293D01*
X130876000Y-92084499D01*
X130871607Y-92084499D01*
X130748394Y-92084499D01*
X130647597Y-92104548D01*
X130647592Y-92104548D01*
X130627549Y-92108536D01*
X130627547Y-92108536D01*
X130580397Y-92128067D01*
X130513719Y-92155685D01*
X130513717Y-92155686D01*
X130411266Y-92224141D01*
X130411263Y-92224144D01*
X127383795Y-95251613D01*
X127322472Y-95285098D01*
X127264021Y-95283707D01*
X127220068Y-95271930D01*
X127000002Y-95252677D01*
X126999998Y-95252677D01*
X126853360Y-95265506D01*
X126779932Y-95271930D01*
X126779930Y-95271930D01*
X126779926Y-95271931D01*
X126735977Y-95283707D01*
X126666127Y-95282044D01*
X126616204Y-95251613D01*
X122666928Y-91302338D01*
X122666925Y-91302334D01*
X122666925Y-91302335D01*
X122659858Y-91295268D01*
X122659858Y-91295267D01*
X122572733Y-91208142D01*
X122572732Y-91208141D01*
X122572731Y-91208140D01*
X122521509Y-91173915D01*
X122470287Y-91139689D01*
X122470286Y-91139688D01*
X122470283Y-91139686D01*
X122470280Y-91139685D01*
X122389792Y-91106347D01*
X122356453Y-91092537D01*
X122346427Y-91090543D01*
X122296029Y-91080518D01*
X122235610Y-91068500D01*
X122235607Y-91068500D01*
X122235606Y-91068500D01*
X104704453Y-91068500D01*
X104637414Y-91048815D01*
X104616772Y-91032181D01*
X98891590Y-85307000D01*
X111997540Y-85307000D01*
X112017326Y-85495256D01*
X112017327Y-85495259D01*
X112075818Y-85675277D01*
X112075821Y-85675284D01*
X112170467Y-85839216D01*
X112201923Y-85874151D01*
X112297129Y-85979888D01*
X112450265Y-86091148D01*
X112450270Y-86091151D01*
X112623192Y-86168142D01*
X112623197Y-86168144D01*
X112808354Y-86207500D01*
X112808355Y-86207500D01*
X112997644Y-86207500D01*
X112997646Y-86207500D01*
X113182803Y-86168144D01*
X113355730Y-86091151D01*
X113508871Y-85979888D01*
X113635533Y-85839216D01*
X113730179Y-85675284D01*
X113788674Y-85495256D01*
X113808460Y-85307000D01*
X113804097Y-85265492D01*
X113816666Y-85196764D01*
X113839734Y-85164854D01*
X115194370Y-83810218D01*
X115255691Y-83776735D01*
X115317133Y-83781129D01*
X115308293Y-83737500D01*
X115333642Y-83672391D01*
X115344149Y-83660439D01*
X116456204Y-82548384D01*
X116517525Y-82514901D01*
X116575976Y-82516292D01*
X116619932Y-82528070D01*
X116754090Y-82539807D01*
X116839998Y-82547323D01*
X116840000Y-82547323D01*
X116840001Y-82547323D01*
X116850345Y-82546417D01*
X116925905Y-82539807D01*
X116994403Y-82553573D01*
X117044586Y-82602188D01*
X117060520Y-82670217D01*
X117037145Y-82736061D01*
X117024392Y-82751016D01*
X116167229Y-83608181D01*
X116105906Y-83641666D01*
X116079548Y-83644500D01*
X115983354Y-83644500D01*
X115950897Y-83651398D01*
X115798197Y-83683855D01*
X115798192Y-83683857D01*
X115625270Y-83760848D01*
X115625265Y-83760851D01*
X115504723Y-83848430D01*
X115438916Y-83871910D01*
X115395579Y-83861831D01*
X115405733Y-83889055D01*
X115390881Y-83957328D01*
X115374200Y-83980872D01*
X115345466Y-84012785D01*
X115250821Y-84176715D01*
X115250818Y-84176722D01*
X115197604Y-84340500D01*
X115192326Y-84356744D01*
X115172540Y-84545000D01*
X115192326Y-84733256D01*
X115192327Y-84733259D01*
X115250818Y-84913277D01*
X115250821Y-84913284D01*
X115345467Y-85077216D01*
X115424374Y-85164851D01*
X115472129Y-85217888D01*
X115625265Y-85329148D01*
X115625270Y-85329151D01*
X115798192Y-85406142D01*
X115798197Y-85406144D01*
X115983354Y-85445500D01*
X115983355Y-85445500D01*
X116172644Y-85445500D01*
X116172646Y-85445500D01*
X116357803Y-85406144D01*
X116530730Y-85329151D01*
X116683871Y-85217888D01*
X116810533Y-85077216D01*
X116905179Y-84913284D01*
X116963674Y-84733256D01*
X116976975Y-84606692D01*
X117003559Y-84542079D01*
X117012606Y-84531982D01*
X118996204Y-82548384D01*
X119057525Y-82514901D01*
X119115976Y-82516292D01*
X119159932Y-82528070D01*
X119294090Y-82539807D01*
X119379998Y-82547323D01*
X119380000Y-82547323D01*
X119380001Y-82547323D01*
X119390345Y-82546417D01*
X119465905Y-82539807D01*
X119534403Y-82553573D01*
X119584586Y-82602188D01*
X119600520Y-82670217D01*
X119577145Y-82736061D01*
X119564392Y-82751016D01*
X119309879Y-83005530D01*
X119248559Y-83039014D01*
X119222200Y-83041848D01*
X119163006Y-83041848D01*
X119130549Y-83048746D01*
X118977849Y-83081203D01*
X118977844Y-83081205D01*
X118804922Y-83158196D01*
X118804917Y-83158199D01*
X118651781Y-83269459D01*
X118525118Y-83410133D01*
X118430473Y-83574063D01*
X118430470Y-83574070D01*
X118377369Y-83737500D01*
X118371978Y-83754092D01*
X118352192Y-83942348D01*
X118371978Y-84130604D01*
X118371979Y-84130607D01*
X118430470Y-84310625D01*
X118430473Y-84310632D01*
X118525119Y-84474564D01*
X118607208Y-84565733D01*
X118651781Y-84615236D01*
X118804917Y-84726496D01*
X118804922Y-84726499D01*
X118977844Y-84803490D01*
X118977849Y-84803492D01*
X119163006Y-84842848D01*
X119163007Y-84842848D01*
X119352296Y-84842848D01*
X119352298Y-84842848D01*
X119537455Y-84803492D01*
X119710382Y-84726499D01*
X119863523Y-84615236D01*
X119990185Y-84474564D01*
X120084831Y-84310632D01*
X120143326Y-84130604D01*
X120160973Y-83962692D01*
X120187556Y-83898082D01*
X120196603Y-83887986D01*
X121536205Y-82548384D01*
X121597526Y-82514901D01*
X121655971Y-82516291D01*
X121665807Y-82518926D01*
X121725470Y-82555287D01*
X121756002Y-82618133D01*
X121747711Y-82687509D01*
X121741110Y-82700698D01*
X121727820Y-82723718D01*
X121727818Y-82723722D01*
X121674995Y-82886297D01*
X121669326Y-82903744D01*
X121649540Y-83092000D01*
X121669326Y-83280256D01*
X121669327Y-83280259D01*
X121727818Y-83460277D01*
X121727821Y-83460284D01*
X121822467Y-83624216D01*
X121924469Y-83737500D01*
X121949129Y-83764888D01*
X122102265Y-83876148D01*
X122102270Y-83876151D01*
X122275192Y-83953142D01*
X122275197Y-83953144D01*
X122460354Y-83992500D01*
X122460355Y-83992500D01*
X122649644Y-83992500D01*
X122649646Y-83992500D01*
X122834803Y-83953144D01*
X123007730Y-83876151D01*
X123160871Y-83764888D01*
X123287533Y-83624216D01*
X123382179Y-83460284D01*
X123440674Y-83280256D01*
X123447398Y-83216270D01*
X123473981Y-83151657D01*
X123483029Y-83141559D01*
X124076204Y-82548384D01*
X124137525Y-82514901D01*
X124195976Y-82516292D01*
X124239932Y-82528070D01*
X124374090Y-82539807D01*
X124459998Y-82547323D01*
X124460000Y-82547323D01*
X124460002Y-82547323D01*
X124515017Y-82542509D01*
X124680068Y-82528070D01*
X124893450Y-82470894D01*
X124940573Y-82448919D01*
X125009649Y-82438427D01*
X125073433Y-82466946D01*
X125110909Y-82522983D01*
X125156818Y-82664277D01*
X125156821Y-82664284D01*
X125251467Y-82828216D01*
X125319473Y-82903744D01*
X125378129Y-82968888D01*
X125531265Y-83080148D01*
X125531270Y-83080151D01*
X125704192Y-83157142D01*
X125704197Y-83157144D01*
X125889354Y-83196500D01*
X125889355Y-83196500D01*
X126078644Y-83196500D01*
X126078646Y-83196500D01*
X126263803Y-83157144D01*
X126436730Y-83080151D01*
X126589871Y-82968888D01*
X126716533Y-82828216D01*
X126811179Y-82664284D01*
X126822871Y-82628298D01*
X126862305Y-82570626D01*
X126926663Y-82543426D01*
X126951604Y-82543089D01*
X126991423Y-82546572D01*
X126999999Y-82547323D01*
X127000000Y-82547323D01*
X127000002Y-82547323D01*
X127055017Y-82542509D01*
X127220068Y-82528070D01*
X127433450Y-82470894D01*
X127633662Y-82377534D01*
X127814620Y-82250826D01*
X127970826Y-82094620D01*
X128097534Y-81913662D01*
X128190894Y-81713450D01*
X128248070Y-81500068D01*
X128267323Y-81280000D01*
X128248070Y-81059932D01*
X128190894Y-80846550D01*
X128097534Y-80646339D01*
X127970826Y-80465380D01*
X127814620Y-80309174D01*
X127814616Y-80309171D01*
X127814615Y-80309170D01*
X127633666Y-80182468D01*
X127633662Y-80182466D01*
X127633660Y-80182465D01*
X127433450Y-80089106D01*
X127433447Y-80089105D01*
X127433445Y-80089104D01*
X127220070Y-80031930D01*
X127220062Y-80031929D01*
X127000002Y-80012677D01*
X126999998Y-80012677D01*
X126779937Y-80031929D01*
X126779929Y-80031930D01*
X126566554Y-80089104D01*
X126566548Y-80089107D01*
X126366340Y-80182465D01*
X126366338Y-80182466D01*
X126185377Y-80309175D01*
X126029175Y-80465377D01*
X125902466Y-80646338D01*
X125902465Y-80646340D01*
X125842382Y-80775189D01*
X125796209Y-80827628D01*
X125729016Y-80846780D01*
X125662135Y-80826564D01*
X125617618Y-80775189D01*
X125557651Y-80646590D01*
X125557534Y-80646339D01*
X125430826Y-80465380D01*
X125274620Y-80309174D01*
X125274616Y-80309171D01*
X125274615Y-80309170D01*
X125093666Y-80182468D01*
X125093662Y-80182466D01*
X125093660Y-80182465D01*
X124893450Y-80089106D01*
X124893447Y-80089105D01*
X124893445Y-80089104D01*
X124680070Y-80031930D01*
X124680062Y-80031929D01*
X124460002Y-80012677D01*
X124459998Y-80012677D01*
X124239937Y-80031929D01*
X124239929Y-80031930D01*
X124026554Y-80089104D01*
X124026548Y-80089107D01*
X123826340Y-80182465D01*
X123826338Y-80182466D01*
X123645377Y-80309175D01*
X123489175Y-80465377D01*
X123362466Y-80646338D01*
X123362465Y-80646340D01*
X123302382Y-80775189D01*
X123256209Y-80827628D01*
X123189016Y-80846780D01*
X123122135Y-80826564D01*
X123077618Y-80775189D01*
X123017651Y-80646590D01*
X123017534Y-80646339D01*
X122890826Y-80465380D01*
X122734620Y-80309174D01*
X122734616Y-80309171D01*
X122734615Y-80309170D01*
X122553666Y-80182468D01*
X122553662Y-80182466D01*
X122553660Y-80182465D01*
X122353450Y-80089106D01*
X122353447Y-80089105D01*
X122353445Y-80089104D01*
X122140070Y-80031930D01*
X122140062Y-80031929D01*
X121920002Y-80012677D01*
X121919998Y-80012677D01*
X121699937Y-80031929D01*
X121699929Y-80031930D01*
X121486554Y-80089104D01*
X121486548Y-80089107D01*
X121286340Y-80182465D01*
X121286338Y-80182466D01*
X121105377Y-80309175D01*
X120949175Y-80465377D01*
X120822466Y-80646338D01*
X120822465Y-80646340D01*
X120762382Y-80775189D01*
X120716209Y-80827628D01*
X120649016Y-80846780D01*
X120582135Y-80826564D01*
X120537618Y-80775189D01*
X120477651Y-80646590D01*
X120477534Y-80646339D01*
X120350826Y-80465380D01*
X120194620Y-80309174D01*
X120194616Y-80309171D01*
X120194615Y-80309170D01*
X120013666Y-80182468D01*
X120013662Y-80182466D01*
X120013660Y-80182465D01*
X119813450Y-80089106D01*
X119813447Y-80089105D01*
X119813445Y-80089104D01*
X119600070Y-80031930D01*
X119600062Y-80031929D01*
X119380002Y-80012677D01*
X119379998Y-80012677D01*
X119159937Y-80031929D01*
X119159929Y-80031930D01*
X118946554Y-80089104D01*
X118946548Y-80089107D01*
X118746340Y-80182465D01*
X118746338Y-80182466D01*
X118565377Y-80309175D01*
X118409175Y-80465377D01*
X118282466Y-80646338D01*
X118282465Y-80646340D01*
X118222382Y-80775189D01*
X118176209Y-80827628D01*
X118109016Y-80846780D01*
X118042135Y-80826564D01*
X117997618Y-80775189D01*
X117937651Y-80646590D01*
X117937534Y-80646339D01*
X117810826Y-80465380D01*
X117654620Y-80309174D01*
X117654616Y-80309171D01*
X117654615Y-80309170D01*
X117473666Y-80182468D01*
X117473662Y-80182466D01*
X117473660Y-80182465D01*
X117273450Y-80089106D01*
X117273447Y-80089105D01*
X117273445Y-80089104D01*
X117060070Y-80031930D01*
X117060062Y-80031929D01*
X116840002Y-80012677D01*
X116839998Y-80012677D01*
X116619937Y-80031929D01*
X116619929Y-80031930D01*
X116406554Y-80089104D01*
X116406548Y-80089107D01*
X116206340Y-80182465D01*
X116206338Y-80182466D01*
X116025377Y-80309175D01*
X115869175Y-80465377D01*
X115742467Y-80646337D01*
X115682105Y-80775782D01*
X115635932Y-80828221D01*
X115568738Y-80847372D01*
X115501857Y-80827156D01*
X115457341Y-80775780D01*
X115397098Y-80646589D01*
X115397097Y-80646587D01*
X115351741Y-80581811D01*
X115351740Y-80581810D01*
X114681000Y-81252551D01*
X114681000Y-81229840D01*
X114655036Y-81132939D01*
X114604876Y-81046060D01*
X114533940Y-80975124D01*
X114447061Y-80924964D01*
X114350160Y-80899000D01*
X114327448Y-80899000D01*
X114998188Y-80228259D01*
X114998187Y-80228258D01*
X114933411Y-80182901D01*
X114933405Y-80182898D01*
X114733284Y-80089580D01*
X114733270Y-80089575D01*
X114519986Y-80032426D01*
X114519976Y-80032424D01*
X114300001Y-80013179D01*
X114299999Y-80013179D01*
X114080023Y-80032424D01*
X114080013Y-80032426D01*
X113866729Y-80089575D01*
X113866720Y-80089579D01*
X113666590Y-80182901D01*
X113601811Y-80228258D01*
X114272553Y-80899000D01*
X114249840Y-80899000D01*
X114152939Y-80924964D01*
X114066060Y-80975124D01*
X113995124Y-81046060D01*
X113944964Y-81132939D01*
X113919000Y-81229840D01*
X113919000Y-81252553D01*
X113248258Y-80581811D01*
X113202901Y-80646590D01*
X113109579Y-80846720D01*
X113109575Y-80846729D01*
X113052426Y-81060013D01*
X113052424Y-81060023D01*
X113033179Y-81279999D01*
X113033179Y-81280000D01*
X113052424Y-81499976D01*
X113052426Y-81499986D01*
X113109575Y-81713270D01*
X113109580Y-81713284D01*
X113202898Y-81913405D01*
X113202901Y-81913411D01*
X113248258Y-81978187D01*
X113248259Y-81978188D01*
X113919000Y-81307447D01*
X113919000Y-81330160D01*
X113944964Y-81427061D01*
X113995124Y-81513940D01*
X114066060Y-81584876D01*
X114152939Y-81635036D01*
X114249840Y-81661000D01*
X114272553Y-81661000D01*
X113601810Y-82331740D01*
X113666590Y-82377099D01*
X113666592Y-82377100D01*
X113866715Y-82470419D01*
X113866729Y-82470424D01*
X114080013Y-82527573D01*
X114080023Y-82527575D01*
X114299999Y-82546821D01*
X114300001Y-82546821D01*
X114386453Y-82539257D01*
X114454953Y-82553023D01*
X114505136Y-82601638D01*
X114521070Y-82669667D01*
X114497695Y-82735511D01*
X114484942Y-82750466D01*
X112860430Y-84374979D01*
X112799107Y-84408464D01*
X112798530Y-84408588D01*
X112623197Y-84445855D01*
X112623192Y-84445857D01*
X112450270Y-84522848D01*
X112450265Y-84522851D01*
X112297129Y-84634111D01*
X112170467Y-84774784D01*
X112170466Y-84774784D01*
X112075821Y-84938715D01*
X112075818Y-84938722D01*
X112017327Y-85118740D01*
X112017326Y-85118744D01*
X111997540Y-85307000D01*
X98891590Y-85307000D01*
X98588771Y-85004181D01*
X98555286Y-84942858D01*
X98560270Y-84873166D01*
X98602142Y-84817233D01*
X98667606Y-84792816D01*
X98676452Y-84792500D01*
X106394608Y-84792500D01*
X106394608Y-84792499D01*
X106483673Y-84774784D01*
X106483674Y-84774784D01*
X106494460Y-84772638D01*
X106515452Y-84768463D01*
X106548792Y-84754652D01*
X106629286Y-84721312D01*
X106693198Y-84678606D01*
X106731733Y-84652858D01*
X106818858Y-84565733D01*
X106818858Y-84565731D01*
X106829066Y-84555524D01*
X106829067Y-84555521D01*
X108836205Y-82548384D01*
X108897526Y-82514901D01*
X108955976Y-82516291D01*
X108999932Y-82528070D01*
X109134090Y-82539807D01*
X109219998Y-82547323D01*
X109220000Y-82547323D01*
X109220002Y-82547323D01*
X109275017Y-82542509D01*
X109440068Y-82528070D01*
X109653450Y-82470894D01*
X109853662Y-82377534D01*
X110034620Y-82250826D01*
X110190826Y-82094620D01*
X110317534Y-81913662D01*
X110410894Y-81713450D01*
X110468070Y-81500068D01*
X110487323Y-81280000D01*
X110468070Y-81059932D01*
X110410894Y-80846550D01*
X110317534Y-80646339D01*
X110190826Y-80465380D01*
X110034620Y-80309174D01*
X110034616Y-80309171D01*
X110034615Y-80309170D01*
X109853666Y-80182468D01*
X109853662Y-80182466D01*
X109853660Y-80182465D01*
X109653450Y-80089106D01*
X109653447Y-80089105D01*
X109653445Y-80089104D01*
X109440070Y-80031930D01*
X109440062Y-80031929D01*
X109220002Y-80012677D01*
X109219998Y-80012677D01*
X108999937Y-80031929D01*
X108999929Y-80031930D01*
X108786554Y-80089104D01*
X108786548Y-80089107D01*
X108586340Y-80182465D01*
X108586338Y-80182466D01*
X108405377Y-80309175D01*
X108249175Y-80465377D01*
X108122466Y-80646338D01*
X108122465Y-80646340D01*
X108062382Y-80775189D01*
X108016209Y-80827628D01*
X107949016Y-80846780D01*
X107882135Y-80826564D01*
X107837618Y-80775189D01*
X107777651Y-80646590D01*
X107777534Y-80646339D01*
X107650826Y-80465380D01*
X107494620Y-80309174D01*
X107494616Y-80309171D01*
X107494615Y-80309170D01*
X107313666Y-80182468D01*
X107313662Y-80182466D01*
X107313660Y-80182465D01*
X107113450Y-80089106D01*
X107113447Y-80089105D01*
X107113445Y-80089104D01*
X106900070Y-80031930D01*
X106900062Y-80031929D01*
X106680002Y-80012677D01*
X106679998Y-80012677D01*
X106459937Y-80031929D01*
X106459929Y-80031930D01*
X106246554Y-80089104D01*
X106246548Y-80089107D01*
X106046340Y-80182465D01*
X106046338Y-80182466D01*
X105865377Y-80309175D01*
X105709175Y-80465377D01*
X105582466Y-80646338D01*
X105582465Y-80646340D01*
X105522382Y-80775189D01*
X105476209Y-80827628D01*
X105409016Y-80846780D01*
X105342135Y-80826564D01*
X105297618Y-80775189D01*
X105237651Y-80646590D01*
X105237534Y-80646339D01*
X105110826Y-80465380D01*
X104954620Y-80309174D01*
X104954616Y-80309171D01*
X104954615Y-80309170D01*
X104773666Y-80182468D01*
X104773662Y-80182466D01*
X104773660Y-80182465D01*
X104573450Y-80089106D01*
X104573447Y-80089105D01*
X104573445Y-80089104D01*
X104360070Y-80031930D01*
X104360062Y-80031929D01*
X104140002Y-80012677D01*
X104139998Y-80012677D01*
X103919937Y-80031929D01*
X103919929Y-80031930D01*
X103706554Y-80089104D01*
X103706548Y-80089107D01*
X103506340Y-80182465D01*
X103506338Y-80182466D01*
X103325377Y-80309175D01*
X103169175Y-80465377D01*
X103042466Y-80646338D01*
X103042465Y-80646340D01*
X102982382Y-80775189D01*
X102936209Y-80827628D01*
X102869016Y-80846780D01*
X102802135Y-80826564D01*
X102757618Y-80775189D01*
X102697651Y-80646590D01*
X102697534Y-80646339D01*
X102570826Y-80465380D01*
X102414620Y-80309174D01*
X102414616Y-80309171D01*
X102414615Y-80309170D01*
X102233666Y-80182468D01*
X102233662Y-80182466D01*
X102233660Y-80182465D01*
X102033450Y-80089106D01*
X102033447Y-80089105D01*
X102033445Y-80089104D01*
X101820070Y-80031930D01*
X101820062Y-80031929D01*
X101600002Y-80012677D01*
X101599998Y-80012677D01*
X101379937Y-80031929D01*
X101379929Y-80031930D01*
X101166554Y-80089104D01*
X101166548Y-80089107D01*
X100966340Y-80182465D01*
X100966338Y-80182466D01*
X100785377Y-80309175D01*
X100629175Y-80465377D01*
X100502466Y-80646338D01*
X100502465Y-80646340D01*
X100442382Y-80775189D01*
X100396209Y-80827628D01*
X100329016Y-80846780D01*
X100262135Y-80826564D01*
X100217618Y-80775189D01*
X100157651Y-80646590D01*
X100157534Y-80646339D01*
X100030826Y-80465380D01*
X99874620Y-80309174D01*
X99874616Y-80309171D01*
X99874615Y-80309170D01*
X99693666Y-80182468D01*
X99693662Y-80182466D01*
X99693660Y-80182465D01*
X99493450Y-80089106D01*
X99493447Y-80089105D01*
X99493445Y-80089104D01*
X99280070Y-80031930D01*
X99280062Y-80031929D01*
X99060002Y-80012677D01*
X99059998Y-80012677D01*
X98839937Y-80031929D01*
X98839929Y-80031930D01*
X98626554Y-80089104D01*
X98626548Y-80089107D01*
X98426340Y-80182465D01*
X98426338Y-80182466D01*
X98245377Y-80309175D01*
X98089175Y-80465377D01*
X97962467Y-80646337D01*
X97902105Y-80775782D01*
X97855932Y-80828221D01*
X97788738Y-80847372D01*
X97721857Y-80827156D01*
X97677341Y-80775780D01*
X97617098Y-80646589D01*
X97617097Y-80646587D01*
X97571741Y-80581811D01*
X97571740Y-80581810D01*
X96901000Y-81252550D01*
X96901000Y-81229840D01*
X96875036Y-81132939D01*
X96824876Y-81046060D01*
X96753940Y-80975124D01*
X96667061Y-80924964D01*
X96570160Y-80899000D01*
X96547448Y-80899000D01*
X97218188Y-80228259D01*
X97218187Y-80228258D01*
X97153411Y-80182901D01*
X97153405Y-80182898D01*
X96953284Y-80089580D01*
X96953270Y-80089575D01*
X96739986Y-80032426D01*
X96739976Y-80032424D01*
X96520001Y-80013179D01*
X96519999Y-80013179D01*
X96300023Y-80032424D01*
X96300013Y-80032426D01*
X96086729Y-80089575D01*
X96086720Y-80089579D01*
X95886590Y-80182901D01*
X95821811Y-80228258D01*
X96492553Y-80899000D01*
X96469840Y-80899000D01*
X96372939Y-80924964D01*
X96286060Y-80975124D01*
X96215124Y-81046060D01*
X96164964Y-81132939D01*
X96139000Y-81229840D01*
X96139000Y-81252553D01*
X95468258Y-80581811D01*
X95422901Y-80646590D01*
X95329579Y-80846720D01*
X95329575Y-80846729D01*
X95272426Y-81060013D01*
X95272424Y-81060023D01*
X95253179Y-81279999D01*
X95253179Y-81280000D01*
X95272424Y-81499976D01*
X95272425Y-81499982D01*
X95295315Y-81585406D01*
X95293652Y-81655256D01*
X95254490Y-81713119D01*
X95190261Y-81740623D01*
X95175540Y-81741500D01*
X92837452Y-81741500D01*
X92770413Y-81721815D01*
X92749771Y-81705181D01*
X92484818Y-81440228D01*
X92451333Y-81378905D01*
X92448499Y-81352556D01*
X92448499Y-79771964D01*
X92437886Y-79652582D01*
X92381909Y-79456951D01*
X92287698Y-79276593D01*
X92287695Y-79276590D01*
X92287694Y-79276587D01*
X92227170Y-79202360D01*
X92200061Y-79137964D01*
X92212070Y-79069134D01*
X92259386Y-79017724D01*
X92323272Y-79000000D01*
X128948638Y-79000000D01*
X129015677Y-79019685D01*
G37*
%TD.AperFunction*%
%TD*%
M02*
