M48
; DRILL file {KiCad 8.0.3} date 2024-07-01T08:25:33+0900
; FORMAT={-:-/ absolute / inch / decimal}
; #@! TF.CreationDate,2024-07-01T08:25:33+09:00
; #@! TF.GenerationSoftware,Kicad,Pcbnew,8.0.3
; #@! TF.FileFunction,Plated,1,2,PTH
FMAT,2
INCH
; #@! TA.AperFunction,Plated,PTH,ViaDrill
T1C0.0157
; #@! TA.AperFunction,Plated,PTH,ComponentDrill
T2C0.0300
%
G90
G05
T1
X2.9Y-3.5
X3.0Y-3.6
X3.1Y-3.5
X3.2Y-3.6
X3.3Y-3.5
X3.5Y-3.5
X3.7Y-3.15
X3.7Y-3.5
X3.9Y-3.5
X4.05Y-3.15
X4.1Y-3.5
X4.3Y-3.5
X4.33Y-3.37
X4.375Y-3.6715
X4.4Y-3.15
X4.46Y-3.34
X4.5Y-3.5
X4.5Y-3.7
X4.59Y-3.31
X4.6Y-3.7
X4.7Y-3.5
X4.72Y-3.28
X4.73Y-3.7287
X4.75Y-3.15
X4.85Y-3.25
X4.86Y-3.76
X4.9Y-3.5
X5.03Y-3.35
X5.05Y-3.15
X5.0704Y-3.6454
X5.1Y-3.25
X5.1Y-3.5
T2
X2.8Y-3.2
X2.8Y-3.8
X2.85Y-3.2
X2.85Y-3.8
X2.9Y-3.2
X2.9Y-3.8
X2.95Y-3.2
X2.95Y-3.8
X3.0Y-3.2
X3.0Y-3.8
X3.05Y-3.2
X3.05Y-3.8
X3.1Y-3.2
X3.1Y-3.8
X3.15Y-3.2
X3.15Y-3.8
X3.2Y-3.2
X3.2Y-3.8
X3.25Y-3.2
X3.25Y-3.8
X3.3Y-3.2
X3.3Y-3.8
X3.35Y-3.2
X3.4Y-3.2
X3.45Y-3.2
X3.5Y-3.2
X3.55Y-3.2
X3.6Y-3.2
X3.8Y-3.2
X3.8Y-3.8
X3.9Y-3.2
X3.9Y-3.8
X4.0Y-3.2
X4.0Y-3.8
X4.1Y-3.2
X4.1Y-3.8
X4.2Y-3.2
X4.2Y-3.8
X4.3Y-3.2
X4.3Y-3.8
X4.5Y-3.2
X4.5Y-3.8
X4.6Y-3.2
X4.6Y-3.8
X4.7Y-3.2
X4.7Y-3.8
X4.8Y-3.2
X4.8Y-3.8
X4.9Y-3.2
X4.9Y-3.8
X5.0Y-3.2
X5.0Y-3.8
X5.52Y-3.38
X5.52Y-3.4587
X5.52Y-3.5375
X5.52Y-3.6162
M30
