%TF.GenerationSoftware,KiCad,Pcbnew,8.0.3*%
%TF.CreationDate,2024-07-01T08:25:33+09:00*%
%TF.ProjectId,Unit-HDPL-1414,556e6974-2d48-4445-904c-2d313431342e,rev?*%
%TF.SameCoordinates,Original*%
%TF.FileFunction,Soldermask,Bot*%
%TF.FilePolarity,Negative*%
%FSLAX46Y46*%
G04 Gerber Fmt 4.6, Leading zero omitted, Abs format (unit mm)*
G04 Created by KiCad (PCBNEW 8.0.3) date 2024-07-01 08:25:33*
%MOMM*%
%LPD*%
G01*
G04 APERTURE LIST*
G04 Aperture macros list*
%AMRoundRect*
0 Rectangle with rounded corners*
0 $1 Rounding radius*
0 $2 $3 $4 $5 $6 $7 $8 $9 X,Y pos of 4 corners*
0 Add a 4 corners polygon primitive as box body*
4,1,4,$2,$3,$4,$5,$6,$7,$8,$9,$2,$3,0*
0 Add four circle primitives for the rounded corners*
1,1,$1+$1,$2,$3*
1,1,$1+$1,$4,$5*
1,1,$1+$1,$6,$7*
1,1,$1+$1,$8,$9*
0 Add four rect primitives between the rounded corners*
20,1,$1+$1,$2,$3,$4,$5,0*
20,1,$1+$1,$4,$5,$6,$7,0*
20,1,$1+$1,$6,$7,$8,$9,0*
20,1,$1+$1,$8,$9,$2,$3,0*%
G04 Aperture macros list end*
%ADD10RoundRect,0.500000X-0.008000X0.750000X-0.008000X-0.750000X0.008000X-0.750000X0.008000X0.750000X0*%
%ADD11RoundRect,0.500000X0.008000X-0.750000X0.008000X0.750000X-0.008000X0.750000X-0.008000X-0.750000X0*%
%ADD12C,5.500000*%
%ADD13C,1.524000*%
G04 APERTURE END LIST*
D10*
%TO.C,U1*%
X91440000Y-80580000D03*
X90170000Y-80580000D03*
X88900000Y-80580000D03*
X87630000Y-80580000D03*
X86360000Y-80580000D03*
X85090000Y-80580000D03*
X83820000Y-80580000D03*
X82550000Y-80580000D03*
X81280000Y-80580000D03*
X80010000Y-80580000D03*
X78740000Y-80580000D03*
X77470000Y-80580000D03*
X76200000Y-80580000D03*
X74930000Y-80580000D03*
X73660000Y-80580000D03*
X72390000Y-80580000D03*
X71120000Y-80580000D03*
D11*
X71120000Y-97220000D03*
X72390000Y-97220000D03*
X73660000Y-97220000D03*
X74930000Y-97220000D03*
X76200000Y-97220000D03*
X77470000Y-97220000D03*
X78740000Y-97220000D03*
X80010000Y-97220000D03*
X81280000Y-97220000D03*
X82550000Y-97220000D03*
X83820000Y-97220000D03*
%TD*%
D12*
%TO.C,H1*%
X135636000Y-88900000D03*
%TD*%
D13*
%TO.C,J1*%
X140208000Y-91852000D03*
X140208000Y-89852000D03*
X140208000Y-87852000D03*
X140208000Y-85852000D03*
%TD*%
%TO.C,U2*%
X96520000Y-96520000D03*
X99060000Y-96520000D03*
X101600000Y-96520000D03*
X104140000Y-96520000D03*
X106680000Y-96520000D03*
X109220000Y-96520000D03*
X109220000Y-81280000D03*
X106680000Y-81280000D03*
X104140000Y-81280000D03*
X101600000Y-81280000D03*
X99060000Y-81280000D03*
X96520000Y-81280000D03*
%TD*%
%TO.C,U3*%
X114300000Y-96520000D03*
X116840000Y-96520000D03*
X119380000Y-96520000D03*
X121920000Y-96520000D03*
X124460000Y-96520000D03*
X127000000Y-96520000D03*
X127000000Y-81280000D03*
X124460000Y-81280000D03*
X121920000Y-81280000D03*
X119380000Y-81280000D03*
X116840000Y-81280000D03*
X114300000Y-81280000D03*
%TD*%
M02*
